<svg xmlns="http://www.w3.org/2000/svg" width="172.66017150878906" height="280.07080078125" viewBox="-13.090428352355957 -26.93425178527832 172.66017150878906 280.07080078125"><title>Neo4j Graph Visualization</title><desc>Created using Neo4j (http://www.neo4j.com/)</desc><g class="layer relationships"><g class="relationship" transform="translate(130.56974630958317 7.407930663536662) rotate(522.5671195473037)"><path class="outline" fill="#A5ABB6" stroke="none" d="M 17.324116139070416,18.03122292025696 L 18.031222920256962,17.324116139070412 A 47.614812208619824 47.614812208619824 0 0 0 28.13646515172745,25.030849053671503 L 27.641587333813828,25.899811622104146 A 48.614812208619824 48.614812208619824 0 0 1 17.324116139070416,18.03122292025696 Z M 71.94052455855618,27.856267931829578 L 71.52417933122501,26.94706132622305 A 47.614812208619824 47.614812208619824 0 0 0 82.26948538628793,20.16118993363693 L 80.34343520670592,17.86111804221003 L 87.95732816288104,16.0504181631834 L 84.83755229239728,23.227952455539466 L 82.91150211281527,20.927880564112566 A 48.614812208619824 48.614812208619824 0 0 1 71.94052455855618,27.856267931829578"/><text text-anchor="middle" pointer-events="none" font-size="8px" fill="#000000" x="49.57706502875028" y="34.72331547823527" transform="rotate(180 49.57706502875028 31.72331547823527)" font-family="sans-serif">LOTBiznes</text></g><g class="relationship" transform="translate(28.365539220592023 39.50121153131161) rotate(451.1101811999123)"><path class="outline" fill="#A5ABB6" stroke="none" d="M 17.324116139070416,18.03122292025696 L 18.031222920256962,17.324116139070412 A 47.26954670930392 47.26954670930392 0 0 0 27.91509727419404,24.890272234562197 L 27.417086518715553,25.75744308706345 A 48.26954670930392 48.26954670930392 0 0 1 17.324116139070416,18.03122292025696 Z M 71.69456604088583,27.72121867983433 L 71.27528043580753,26.81336429648085 A 47.26954670930392 47.26954670930392 0 0 0 81.79017092081996,20.15192538330619 L 79.86497807951675,17.851135839737534 L 87.47954532936403,16.043273677526795 L 84.35709470922426,23.219644774731062 L 82.43190186792104,20.918855231162407 A 48.26954670930392 48.26954670930392 0 0 1 71.69456604088583,27.72121867983433"/><text text-anchor="middle" pointer-events="none" font-size="8px" fill="#000000" x="49.33926639041395" y="34.62213220909107" transform="rotate(180 49.33926639041395 31.62213220909107)" font-family="sans-serif">LOTBiznes</text></g><g class="relationship" transform="translate(26.299130206626764 146.1339827324121) rotate(386.6481364448551)"><path class="outline" fill="#A5ABB6" stroke="none" d="M 5.987513214418485,24.277555179777966 L 6.953439040707552,24.018736134675446 A 46.38948350801182 46.38948350801182 0 0 0 27.599989385751837,51.61237883839094 L 27.079133191278746,52.46602327530775 A 47.38948350801182 47.38948350801182 0 0 1 5.987513214418485,24.277555179777966 Z M 71.25927526039143,55.20517888321521 L 70.84785410557365,54.29373352919315 A 46.38948350801182 46.38948350801182 0 0 0 94.74477619897894,29.46177280772624 L 91.96510285153272,28.33331541752616 L 97.84112233402016,23.16394456205176 L 98.45100732890722,30.96638266132635 L 95.671333981461,29.837925271126267 A 47.38948350801182 47.38948350801182 0 0 1 71.25927526039143,55.20517888321521"/><text text-anchor="middle" pointer-events="none" font-size="8px" fill="#000000" x="48.8606766622736" y="61.81187608570288" font-family="sans-serif">LOTBiznes</text></g><g class="relationship" transform="translate(130.56974630958317 7.407930663536662) rotate(522.5671195473037)"><path class="outline" fill="#A5ABB6" stroke="none" d="M 24.018736134675446,6.953439040707552 L 24.277555179777966,5.987513214418485 A 105.9521115505847 105.9521115505847 0 0 0 39.31432095124035,8.871320264745563 L 39.19742230348908,9.86446411442391 A 106.9521115505847 106.9521115505847 0 0 1 24.018736134675446,6.953439040707552 Z M 60.817544143080944,10.208403398720236 L 60.732295105048884,9.212043723946806 A 105.9521115505847 105.9521115505847 0 0 0 75.85318167170159,6.807993514870977 L 75.16929151226081,3.8869843998868987 L 82.78285129990458,5.699084662006503 L 76.76503521762264,10.702672334849748 L 76.08114505818186,7.78166321986567 A 106.9521115505847 106.9521115505847 0 0 1 60.817544143080944,10.208403398720236"/><text text-anchor="middle" pointer-events="none" font-size="8px" fill="#000000" x="50.00672212995489" y="13.084276301113789" transform="rotate(180 50.00672212995489 10.084276301113789)" font-family="sans-serif">LOT</text></g><g class="relationship" transform="translate(130.56974630958317 7.407930663536662) rotate(522.5671195473037)"><path class="outline" fill="#A5ABB6" stroke="none" d="M 24.018736134675446,-6.953439040707552 L 24.277555179777966,-5.987513214418485 A 105.9521115505847 105.9521115505847 0 0 1 39.31432095124029,-8.871320264745549 L 39.19742230348901,-9.864464114423896 A 106.9521115505847 106.9521115505847 0 0 0 24.018736134675446,-6.953439040707552 Z M 60.81754414308091,-10.20840339872025 L 60.732295105048856,-9.21204372394682 A 105.9521115505847 105.9521115505847 0 0 1 75.85318167170159,-6.807993514870977 L 75.16929151226081,-3.8869843998868987 L 82.78285129990458,-5.699084662006503 L 76.76503521762264,-10.702672334849748 L 76.08114505818186,-7.78166321986567 A 106.9521115505847 106.9521115505847 0 0 0 60.81754414308091,-10.20840339872025"/><text text-anchor="middle" pointer-events="none" font-size="8px" fill="#000000" x="50.00672212995484" y="-7.084276301113789" transform="rotate(180 50.00672212995484 -10.084276301113789)" font-family="sans-serif">LOT</text></g><g class="relationship" transform="translate(130.56974630958317 7.407930663536662) rotate(522.5671195473037)"><path class="outline" fill="#A5ABB6" stroke="none" d="M 17.324116139070416,-18.03122292025696 L 18.031222920256962,-17.324116139070412 A 47.614812208619824 47.614812208619824 0 0 1 39.08365796120954,-29.568307301735473 L 38.81869164145573,-30.532564969268442 A 48.614812208619824 48.614812208619824 0 0 0 17.324116139070416,-18.03122292025696 Z M 60.39852485760934,-31.485635257261386 L 60.219596976485676,-30.501773065002432 A 47.614812208619824 47.614812208619824 0 0 1 82.26948538628793,-20.16118993363693 L 80.34343520670592,-17.86111804221003 L 87.95732816288104,-16.0504181631834 L 84.83755229239728,-23.227952455539466 L 82.91150211281527,-20.927880564112566 A 48.614812208619824 48.614812208619824 0 0 0 60.39852485760934,-31.485635257261386"/><text text-anchor="middle" pointer-events="none" font-size="8px" fill="#000000" x="49.57706502875028" y="-28.72331547823527" transform="rotate(180 49.57706502875028 -31.72331547823527)" font-family="sans-serif">LOT</text></g><g class="relationship" transform="translate(122.15226500486455 194.23442348554866) rotate(206.64813644485508)"><path class="outline" fill="#A5ABB6" stroke="none" d="M 14.44320574945421,-20.411854586953456 L 15.247803529220876,-19.818034401379958 A 45.382222792952746 45.382222792952746 0 0 1 28.153232847130955,-31.626875778234243 L 27.633006976091377,-32.48090449151098 A 46.382222792952746 46.382222792952746 0 0 0 14.44320574945421,-20.411854586953456 Z M 71.7733083910437,-34.71252550735604 L 71.34187005202608,-33.810383079783925 A 45.382222792952746 45.382222792952746 0 0 1 85.37249908681778,-23.36336008606276 L 83.1506868139251,-21.34753513730767 L 90.4463926793951,-18.515102274105683 L 88.3349154506747,-26.051126684402877 L 86.11310317778202,-24.03530173564779 A 46.382222792952746 46.382222792952746 0 0 0 71.7733083910437,-34.71252550735604"/><text text-anchor="middle" pointer-events="none" font-size="8px" fill="#000000" x="49.445510067757844" y="-35.692850651470685" transform="rotate(180 49.445510067757844 -38.692850651470685)" font-family="sans-serif">LOTBiznes</text></g><g class="relationship" transform="translate(122.15226500486455 194.23442348554866) rotate(206.64813644485508)"><path class="outline" fill="#A5ABB6" stroke="none" d="M 20.90208894244944,-13.724164012497553 L 21.434121018964774,-12.87743981326927 A 57.00430396787915 57.00430396787915 0 0 1 39.302865127536286,-20.236541278365536 L 39.08429612073302,-21.21236277293564 A 58.00430396787915 58.00430396787915 0 0 0 20.90208894244944,-13.724164012497553 Z M 60.69151621627346,-21.92340558272918 L 60.53757458821926,-20.935325639024207 A 57.00430396787915 57.00430396787915 0 0 1 78.8514774779545,-14.766910012906097 L 77.42583574409989,-12.127299123647603 L 85.24817650853342,-11.880347782121751 L 80.75233312309399,-18.286391198584088 L 79.32669138923937,-15.646780309325594 A 58.00430396787915 58.00430396787915 0 0 0 60.69151621627346,-21.92340558272918"/><text text-anchor="middle" pointer-events="none" font-size="8px" fill="#000000" x="49.870931575645095" y="-19.083709327691736" transform="rotate(180 49.870931575645095 -22.083709327691736)" font-family="sans-serif">LOT</text></g><g class="relationship" transform="translate(122.15226500486455 194.23442348554866) rotate(206.64813644485508)"><path class="outline" fill="#A5ABB6" stroke="none" d="M 24.471206027250748,-5.139073415689509 L 24.657117634413662,-4.15650694245622 A 145.79574674507035 145.79574674507035 0 0 1 39.372259830006335,-6.170825897514419 L 39.28727806835752,-7.1672084044800215 A 146.79574674507035 146.79574674507035 0 0 0 24.471206027250748,-5.139073415689509 Z M 60.89858010310496,-7.413649245437398 L 60.83634164540861,-6.415587937509088 A 145.79574674507035 145.79574674507035 0 0 1 75.59359126350148,-4.737352436002707 L 75.1032199207243,-1.7777011142786612 L 82.5811729046538,-4.0864278564766 L 76.24741972053774,-8.683554198301435 L 75.75704837776055,-5.723902876577389 A 146.79574674507035 146.79574674507035 0 0 0 60.89858010310496,-7.413649245437398"/><text text-anchor="middle" pointer-events="none" font-size="8px" fill="#000000" x="50.09408879035974" y="-4.1887300687773745" transform="rotate(180 50.09408879035974 -7.1887300687773745)" font-family="sans-serif">LOT</text></g><g class="relationship" transform="translate(122.15226500486455 194.23442348554866) rotate(206.64813644485508)"><path class="outline" fill="#A5ABB6" stroke="none" d="M 24.471206027250748,5.139073415689509 L 24.657117634413662,4.15650694245622 A 145.79574674507035 145.79574674507035 0 0 0 39.37225983000633,6.170825897514419 L 39.287278068357516,7.1672084044800215 A 146.79574674507035 146.79574674507035 0 0 1 24.471206027250748,5.139073415689509 Z M 60.898580103105,7.413649245437398 L 60.83634164540864,6.415587937509088 A 145.79574674507035 145.79574674507035 0 0 0 75.59359126350148,4.737352436002707 L 75.1032199207243,1.7777011142786612 L 82.5811729046538,4.0864278564766 L 76.24741972053774,8.683554198301435 L 75.75704837776055,5.723902876577389 A 146.79574674507035 146.79574674507035 0 0 1 60.898580103105,7.413649245437398"/><text text-anchor="middle" pointer-events="none" font-size="8px" fill="#000000" x="50.094088790359756" y="10.188730068777375" transform="rotate(180 50.094088790359756 7.1887300687773745)" font-family="sans-serif">LOT</text></g><g class="relationship" transform="translate(28.365539220592023 39.50121153131161) rotate(451.1101811999123)"><path class="outline" fill="#A5ABB6" stroke="none" d="M 24.018736134675446,6.953439040707552 L 24.277555179777966,5.987513214418485 A 105.00882866435302 105.00882866435302 0 0 0 39.079143745674436,8.833671773650579 L 38.961280358816694,9.826701592960362 A 106.00882866435302 106.00882866435302 0 0 1 24.018736134675446,6.953439040707552 Z M 60.58161896296421,10.172075124425916 L 60.49553387801493,9.175787335607211 A 105.00882866435302 105.00882866435302 0 0 0 75.38047869154916,6.803855524528707 L 74.69697505512633,3.88275594063966 L 82.31029499336074,5.69586363685694 L 76.29181687344627,10.698654969714104 L 75.60831323702344,7.777555385825057 A 106.00882866435302 106.00882866435302 0 0 1 60.58161896296421,10.172075124425916"/><text text-anchor="middle" pointer-events="none" font-size="8px" fill="#000000" x="49.77060693666172" y="13.052142786913663" transform="rotate(180 49.77060693666172 10.052142786913663)" font-family="sans-serif">LOT</text></g><g class="relationship" transform="translate(28.365539220592023 39.50121153131161) rotate(451.1101811999123)"><path class="outline" fill="#A5ABB6" stroke="none" d="M 24.018736134675446,-6.953439040707552 L 24.277555179777966,-5.987513214418485 A 105.00882866435302 105.00882866435302 0 0 1 39.0791437456744,-8.833671773650579 L 38.96128035881665,-9.826701592960362 A 106.00882866435302 106.00882866435302 0 0 0 24.018736134675446,-6.953439040707552 Z M 60.5816189629642,-10.172075124425916 L 60.49553387801492,-9.175787335607211 A 105.00882866435302 105.00882866435302 0 0 1 75.38047869154916,-6.803855524528707 L 74.69697505512633,-3.88275594063966 L 82.31029499336074,-5.69586363685694 L 76.29181687344627,-10.698654969714104 L 75.60831323702344,-7.777555385825057 A 106.00882866435302 106.00882866435302 0 0 0 60.5816189629642,-10.172075124425916"/><text text-anchor="middle" pointer-events="none" font-size="8px" fill="#000000" x="49.7706069366617" y="-7.052142786913663" transform="rotate(180 49.7706069366617 -10.052142786913663)" font-family="sans-serif">LOT</text></g><g class="relationship" transform="translate(28.365539220592023 39.50121153131161) rotate(451.1101811999123)"><path class="outline" fill="#A5ABB6" stroke="none" d="M 17.324116139070416,-18.03122292025696 L 18.031222920256962,-17.324116139070412 A 47.26954670930392 47.26954670930392 0 0 1 38.848723640297194,-29.456832935891377 L 38.58201669725724,-30.420610610738784 A 48.26954670930392 48.26954670930392 0 0 0 17.324116139070416,-18.03122292025696 Z M 60.160648319451084,-31.377656733561565 L 59.980310840214855,-30.394051938136734 A 47.26954670930392 47.26954670930392 0 0 1 81.79017092081996,-20.15192538330619 L 79.86497807951675,-17.851135839737534 L 87.47954532936403,-16.043273677526795 L 84.35709470922426,-23.219644774731062 L 82.43190186792104,-20.918855231162407 A 48.26954670930392 48.26954670930392 0 0 0 60.160648319451084,-31.377656733561565"/><text text-anchor="middle" pointer-events="none" font-size="8px" fill="#000000" x="49.33926639041394" y="-28.62213220909107" transform="rotate(180 49.33926639041394 -31.62213220909107)" font-family="sans-serif">LOT</text></g><g class="relationship" transform="translate(26.299130206626764 146.1339827324121) rotate(386.6481364448551)"><path class="outline" fill="#A5ABB6" stroke="none" d="M 20.90208894244944,-13.724164012497553 L 21.434121018964774,-12.87743981326927 A 57.00430396787915 57.00430396787915 0 0 1 39.302865127536286,-20.236541278365536 L 39.08429612073302,-21.21236277293564 A 58.00430396787915 58.00430396787915 0 0 0 20.90208894244944,-13.724164012497553 Z M 60.69151621627346,-21.92340558272918 L 60.53757458821926,-20.935325639024207 A 57.00430396787915 57.00430396787915 0 0 1 78.8514774779545,-14.766910012906097 L 77.42583574409989,-12.127299123647603 L 85.24817650853342,-11.880347782121751 L 80.75233312309399,-18.286391198584088 L 79.32669138923937,-15.646780309325594 A 58.00430396787915 58.00430396787915 0 0 0 60.69151621627346,-21.92340558272918"/><text text-anchor="middle" pointer-events="none" font-size="8px" fill="#000000" x="49.870931575645095" y="-19.083709327691736" font-family="sans-serif">LOT</text></g><g class="relationship" transform="translate(26.299130206626764 146.1339827324121) rotate(386.6481364448551)"><path class="outline" fill="#A5ABB6" stroke="none" d="M 14.44320574945421,-20.411854586953456 L 15.247803529220876,-19.818034401379958 A 45.382222792952746 45.382222792952746 0 0 1 38.983157605188794,-36.415006349647705 L 38.70156977546921,-37.37454180712378 A 46.382222792952746 46.382222792952746 0 0 0 14.44320574945421,-20.411854586953456 Z M 60.26762698179283,-38.46486663381936 L 60.0842509545064,-37.48182379008535 A 45.382222792952746 45.382222792952746 0 0 1 85.37249908681778,-23.36336008606276 L 83.1506868139251,-21.34753513730767 L 90.4463926793951,-18.515102274105683 L 88.3349154506747,-26.051126684402877 L 86.11310317778202,-24.03530173564779 A 46.382222792952746 46.382222792952746 0 0 0 60.26762698179283,-38.46486663381936"/><text text-anchor="middle" pointer-events="none" font-size="8px" fill="#000000" x="49.445510067757844" y="-35.692850651470685" font-family="sans-serif">LOT</text></g><g class="relationship" transform="translate(26.299130206626764 146.1339827324121) rotate(386.6481364448551)"><path class="outline" fill="#A5ABB6" stroke="none" d="M 5.987513214418485,-24.277555179777966 L 6.953439040707552,-24.018736134675446 A 46.38948350801182 46.38948350801182 0 0 1 38.41672625177095,-56.440640095847314 L 38.12904223443906,-57.3983654772442 A 47.38948350801182 47.38948350801182 0 0 0 5.987513214418485,-24.277555179777966 Z M 59.6847263099212,-58.7348114494023 L 59.517548140965744,-57.74888474836176 A 46.38948350801182 46.38948350801182 0 0 1 94.74477619897894,-29.46177280772624 L 91.96510285153272,-28.33331541752616 L 97.84112233402016,-23.16394456205176 L 98.45100732890722,-30.96638266132635 L 95.671333981461,-29.837925271126267 A 47.38948350801182 47.38948350801182 0 0 0 59.6847263099212,-58.7348114494023"/><text text-anchor="middle" pointer-events="none" font-size="8px" fill="#000000" x="48.86067666227359" y="-55.81187608570288" font-family="sans-serif">LOT</text></g></g><g class="layer nodes"><g class="node" transform="translate(130.56974630958317,7.407930663536662)"><circle class="outline" cx="0" cy="0" r="25" fill="#F79767" stroke="#f36924" stroke-width="2px"/><text text-anchor="middle" pointer-events="none" font-family="sans-serif" dy="1.5625" font-size="25" fill="#FFFFFF"/><text text-anchor="middle" pointer-events="none" y="5" font-size="10px" fill="#FFFFFF" font-family="sans-serif"> LAX</text></g><g class="node" transform="translate(122.15226500486455,194.23442348554866)"><circle class="outline" cx="0" cy="0" r="25" fill="#F79767" stroke="#f36924" stroke-width="2px"/><text text-anchor="middle" pointer-events="none" font-family="sans-serif" dy="1.5625" font-size="25" fill="#FFFFFF"/><text text-anchor="middle" pointer-events="none" y="5" font-size="10px" fill="#FFFFFF" font-family="sans-serif"> SEA</text></g><g class="node" transform="translate(28.365539220592023,39.50121153131161)"><circle class="outline" cx="0" cy="0" r="25" fill="#F79767" stroke="#f36924" stroke-width="2px"/><text text-anchor="middle" pointer-events="none" font-family="sans-serif" dy="1.5625" font-size="25" fill="#FFFFFF"/><text text-anchor="middle" pointer-events="none" y="5" font-size="10px" fill="#FFFFFF" font-family="sans-serif"> LAS</text></g><g class="node" transform="translate(26.299130206626764,146.1339827324121)"><circle class="outline" cx="0" cy="0" r="25" fill="#F79767" stroke="#f36924" stroke-width="2px"/><text text-anchor="middle" pointer-events="none" font-family="sans-serif" dy="1.5625" font-size="25" fill="#FFFFFF"/><text text-anchor="middle" pointer-events="none" y="5" font-size="10px" fill="#FFFFFF" font-family="sans-serif"> DEN</text></g></g></svg>