<svg xmlns="http://www.w3.org/2000/svg" width="164.40013122558594" height="274.7286071777344" viewBox="-4.830383777618408 -21.592069625854492 164.40013122558594 274.7286071777344"><title>Neo4j Graph Visualization</title><desc>Created using Neo4j (http://www.neo4j.com/)</desc><g class="layer relationships"><g class="relationship" transform="translate(130.56974630958317 7.407930663536662) rotate(522.5671195473037)"><path class="outline" fill="#A5ABB6" stroke="none" d="M 21.40063509461097,12.933012701892217 L 21.90063509461097,12.06698729810778 A 59.59868884657019 59.59868884657019 0 0 0 39.260163772217496,18.73898213552833 L 39.051437439701964,19.716956224200736 A 60.59868884657019 60.59868884657019 0 0 1 21.40063509461097,12.933012701892217 Z M 60.662697063229196,20.38522697273457 L 60.51479423371376,19.39622507535453 A 59.59868884657019 59.59868884657019 0 0 0 78.25338979842084,13.809546418857096 L 76.91677933964631,11.123755570430035 L 84.74300352121307,11.138420489787713 L 80.03553707678687,17.39060088342651 L 78.69892661801234,14.70481003499945 A 60.59868884657019 60.59868884657019 0 0 1 60.662697063229196,20.38522697273457"/><text text-anchor="middle" pointer-events="none" font-size="8px" fill="#000000" x="49.842475195112115" y="23.52298524185663" transform="rotate(180 49.842475195112115 20.52298524185663)" font-family="sans-serif">LOT</text></g><g class="relationship" transform="translate(28.365539220592023 39.50121153131161) rotate(451.1101811999123)"><path class="outline" fill="#A5ABB6" stroke="none" d="M 21.40063509461097,12.933012701892217 L 21.90063509461097,12.06698729810778 A 59.11040969481808 59.11040969481808 0 0 0 39.02555113654816,18.664524211270688 L 38.815261800547134,19.642163406047707 A 60.11040969481808 60.11040969481808 0 0 1 21.40063509461097,12.933012701892217 Z M 60.4259852225053,20.31321475274565 L 60.27675740446135,19.324411911769836 A 59.11040969481808 59.11040969481808 0 0 0 77.77801692365962,13.802079251958789 L 76.44210111200114,11.115942817568154 L 84.26832123918085,11.13263176382075 L 79.55923800587094,17.383594497812968 L 78.22332219421246,14.697458063422333 A 60.11040969481808 60.11040969481808 0 0 1 60.4259852225053,20.31321475274565"/><text text-anchor="middle" pointer-events="none" font-size="8px" fill="#000000" x="49.60572258094205" y="23.457562774858097" transform="rotate(180 49.60572258094205 20.457562774858097)" font-family="sans-serif">LOT</text></g><g class="relationship" transform="translate(26.299130206626764 146.1339827324121) rotate(386.6481364448551)"><path class="outline" fill="#A5ABB6" stroke="none" d="M 5.987513214418485,24.277555179777966 L 6.953439040707552,24.018736134675446 A 46.38948350801182 46.38948350801182 0 0 0 38.41672625177095,56.440640095847314 L 38.12904223443907,57.3983654772442 A 47.38948350801182 47.38948350801182 0 0 1 5.987513214418485,24.277555179777966 Z M 59.68472630992121,58.7348114494023 L 59.51754814096575,57.74888474836176 A 46.38948350801182 46.38948350801182 0 0 0 94.74477619897894,29.46177280772624 L 91.96510285153272,28.33331541752616 L 97.84112233402016,23.16394456205176 L 98.45100732890722,30.96638266132635 L 95.671333981461,29.837925271126267 A 47.38948350801182 47.38948350801182 0 0 1 59.68472630992121,58.7348114494023"/><text text-anchor="middle" pointer-events="none" font-size="8px" fill="#000000" x="48.8606766622736" y="61.81187608570288" font-family="sans-serif">LOT</text></g><g class="relationship" transform="translate(130.56974630958317 7.407930663536662) rotate(522.5671195473037)"><path class="outline" fill="#A5ABB6" stroke="none" d="M 25 0.5 L 39.28300008738595 0.5 L 39.28300008738595 -0.5 L 25 -0.5 Z M 60.84159383738595 0.5 L 75.1245939247719 0.5 L 75.1245939247719 3.5 L 82.1245939247719 0 L 75.1245939247719 -3.5 L 75.1245939247719 -0.5 L 60.84159383738595 -0.5 Z"/><text text-anchor="middle" pointer-events="none" font-size="8px" fill="#000000" x="50.06229696238595" y="3" transform="rotate(180 50.06229696238595 0)" font-family="sans-serif">LOT</text></g><g class="relationship" transform="translate(130.56974630958317 7.407930663536662) rotate(522.5671195473037)"><path class="outline" fill="#A5ABB6" stroke="none" d="M 21.40063509461097,-12.933012701892217 L 21.90063509461097,-12.06698729810778 A 59.59868884657019 59.59868884657019 0 0 1 39.26016377221748,-18.73898213552833 L 39.05143743970196,-19.716956224200736 A 60.59868884657019 60.59868884657019 0 0 0 21.40063509461097,-12.933012701892217 Z M 60.66269706322919,-20.38522697273457 L 60.51479423371376,-19.39622507535453 A 59.59868884657019 59.59868884657019 0 0 1 78.25338979842084,-13.809546418857096 L 76.91677933964631,-11.123755570430035 L 84.74300352121307,-11.138420489787713 L 80.03553707678687,-17.39060088342651 L 78.69892661801234,-14.70481003499945 A 60.59868884657019 60.59868884657019 0 0 0 60.66269706322919,-20.38522697273457"/><text text-anchor="middle" pointer-events="none" font-size="8px" fill="#000000" x="49.84247519511211" y="-17.52298524185663" transform="rotate(180 49.84247519511211 -20.52298524185663)" font-family="sans-serif">LOT</text></g><g class="relationship" transform="translate(122.15226500486455 194.23442348554866) rotate(206.64813644485508)"><path class="outline" fill="#A5ABB6" stroke="none" d="M 17.324116139070416,-18.03122292025696 L 18.031222920256962,-17.324116139070412 A 47.70286073688658 47.70286073688658 0 0 1 39.14358724773468,-29.59671430378492 L 38.879061142032704,-30.561092828743952 A 48.70286073688658 48.70286073688658 0 0 0 17.324116139070416,-18.03122292025696 Z M 60.459195064040934,-31.513154120111253 L 60.2806232983757,-30.529227230293117 A 47.70286073688658 47.70286073688658 0 0 1 82.391731897429,-20.163540097759213 L 80.46546423580608,-17.863650340447837 L 88.07918594142603,-16.052230513524307 L 84.9600887795929,-23.230059774174382 L 83.03382111796998,-20.930170016863006 A 48.70286073688658 48.70286073688658 0 0 0 60.459195064040934,-31.513154120111253"/><text text-anchor="middle" pointer-events="none" font-size="8px" fill="#000000" x="49.63771664708335" y="-28.749119048985165" transform="rotate(180 49.63771664708335 -31.749119048985165)" font-family="sans-serif">LOT</text></g><g class="relationship" transform="translate(122.15226500486455 194.23442348554866) rotate(206.64813644485508)"><path class="outline" fill="#A5ABB6" stroke="none" d="M 24.018736134675446,-6.953439040707552 L 24.277555179777966,-5.987513214418485 A 106.19266460334107 106.19266460334107 0 0 1 39.374309159869576,-8.880906984607762 L 39.257653926518856,-9.874079455295444 A 107.19266460334107 107.19266460334107 0 0 0 24.018736134675446,-6.953439040707552 Z M 60.877720181093494,-10.217654809572323 L 60.79268189059556,-9.221277125584379 A 106.19266460334107 106.19266460334107 0 0 1 75.97375026645413,-6.809043469346053 L 75.28976203258928,-3.8880573180720615 L 82.90338265840425,-5.6999019488737375 L 76.88573457827393,-10.703691671044709 L 76.20174634440907,-7.782705519770717 A 107.19266460334107 107.19266460334107 0 0 0 60.877720181093494,-10.217654809572323"/><text text-anchor="middle" pointer-events="none" font-size="8px" fill="#000000" x="50.066946448451816" y="-7.092470989871288" transform="rotate(180 50.066946448451816 -10.092470989871288)" font-family="sans-serif">LOT</text></g><g class="relationship" transform="translate(122.15226500486455 194.23442348554866) rotate(206.64813644485508)"><path class="outline" fill="#A5ABB6" stroke="none" d="M 24.018736134675446,6.953439040707552 L 24.277555179777966,5.987513214418485 A 106.19266460334107 106.19266460334107 0 0 0 39.37430915986963,8.880906984607776 L 39.25765392651891,9.874079455295458 A 107.19266460334107 107.19266460334107 0 0 1 24.018736134675446,6.953439040707552 Z M 60.877720181093515,10.217654809572323 L 60.79268189059558,9.221277125584379 A 106.19266460334107 106.19266460334107 0 0 0 75.97375026645413,6.809043469346053 L 75.28976203258928,3.8880573180720615 L 82.90338265840425,5.6999019488737375 L 76.88573457827393,10.703691671044709 L 76.20174634440907,7.782705519770717 A 107.19266460334107 107.19266460334107 0 0 1 60.877720181093515,10.217654809572323"/><text text-anchor="middle" pointer-events="none" font-size="8px" fill="#000000" x="50.06694644845186" y="13.092470989871288" transform="rotate(180 50.06694644845186 10.092470989871288)" font-family="sans-serif">LOT</text></g><g class="relationship" transform="translate(28.365539220592023 39.50121153131161) rotate(451.1101811999123)"><path class="outline" fill="#A5ABB6" stroke="none" d="M 25 0.5 L 39.04709888788474 0.5 L 39.04709888788474 -0.5 L 25 -0.5 Z M 60.60569263788474 0.5 L 74.65279152576947 0.5 L 74.65279152576947 3.5 L 81.65279152576947 0 L 74.65279152576947 -3.5 L 74.65279152576947 -0.5 L 60.60569263788474 -0.5 Z"/><text text-anchor="middle" pointer-events="none" font-size="8px" fill="#000000" x="49.82639576288474" y="3" transform="rotate(180 49.82639576288474 0)" font-family="sans-serif">LOT</text></g><g class="relationship" transform="translate(28.365539220592023 39.50121153131161) rotate(451.1101811999123)"><path class="outline" fill="#A5ABB6" stroke="none" d="M 21.40063509461097,-12.933012701892217 L 21.90063509461097,-12.06698729810778 A 59.11040969481808 59.11040969481808 0 0 1 39.025551136548145,-18.664524211270688 L 38.81526180054712,-19.6421634060477 A 60.11040969481808 60.11040969481808 0 0 0 21.40063509461097,-12.933012701892217 Z M 60.425985222505275,-20.313214752745658 L 60.27675740446133,-19.324411911769843 A 59.11040969481808 59.11040969481808 0 0 1 77.77801692365962,-13.802079251958789 L 76.44210111200114,-11.115942817568154 L 84.26832123918085,-11.13263176382075 L 79.55923800587094,-17.383594497812968 L 78.22332219421246,-14.697458063422333 A 60.11040969481808 60.11040969481808 0 0 0 60.425985222505275,-20.313214752745658"/><text text-anchor="middle" pointer-events="none" font-size="8px" fill="#000000" x="49.60572258094203" y="-17.457562774858097" transform="rotate(180 49.60572258094203 -20.457562774858097)" font-family="sans-serif">LOT</text></g><g class="relationship" transform="translate(26.299130206626764 146.1339827324121) rotate(386.6481364448551)"><path class="outline" fill="#A5ABB6" stroke="none" d="M 17.324116139070416,-18.03122292025696 L 18.031222920256962,-17.324116139070412 A 47.70286073688658 47.70286073688658 0 0 1 39.14358724773468,-29.59671430378492 L 38.879061142032704,-30.561092828743952 A 48.70286073688658 48.70286073688658 0 0 0 17.324116139070416,-18.03122292025696 Z M 60.459195064040934,-31.513154120111253 L 60.2806232983757,-30.529227230293117 A 47.70286073688658 47.70286073688658 0 0 1 82.391731897429,-20.163540097759213 L 80.46546423580608,-17.863650340447837 L 88.07918594142603,-16.052230513524307 L 84.9600887795929,-23.230059774174382 L 83.03382111796998,-20.930170016863006 A 48.70286073688658 48.70286073688658 0 0 0 60.459195064040934,-31.513154120111253"/><text text-anchor="middle" pointer-events="none" font-size="8px" fill="#000000" x="49.63771664708335" y="-28.749119048985165" font-family="sans-serif">LOT</text></g><g class="relationship" transform="translate(26.299130206626764 146.1339827324121) rotate(386.6481364448551)"><path class="outline" fill="#A5ABB6" stroke="none" d="M 5.987513214418485,-24.277555179777966 L 6.953439040707552,-24.018736134675446 A 46.38948350801182 46.38948350801182 0 0 1 38.41672625177095,-56.440640095847314 L 38.12904223443906,-57.3983654772442 A 47.38948350801182 47.38948350801182 0 0 0 5.987513214418485,-24.277555179777966 Z M 59.6847263099212,-58.7348114494023 L 59.517548140965744,-57.74888474836176 A 46.38948350801182 46.38948350801182 0 0 1 94.74477619897894,-29.46177280772624 L 91.96510285153272,-28.33331541752616 L 97.84112233402016,-23.16394456205176 L 98.45100732890722,-30.96638266132635 L 95.671333981461,-29.837925271126267 A 47.38948350801182 47.38948350801182 0 0 0 59.6847263099212,-58.7348114494023"/><text text-anchor="middle" pointer-events="none" font-size="8px" fill="#000000" x="48.86067666227359" y="-55.81187608570288" font-family="sans-serif">LOT</text></g></g><g class="layer nodes"><g class="node" transform="translate(130.56974630958317,7.407930663536662)"><circle class="outline" cx="0" cy="0" r="25" fill="#F79767" stroke="#f36924" stroke-width="2px"/><text text-anchor="middle" pointer-events="none" font-family="sans-serif" dy="1.5625" font-size="25" fill="#FFFFFF"/><text text-anchor="middle" pointer-events="none" y="5" font-size="10px" fill="#FFFFFF" font-family="sans-serif"> LAX</text></g><g class="node" transform="translate(122.15226500486455,194.23442348554866)"><circle class="outline" cx="0" cy="0" r="25" fill="#F79767" stroke="#f36924" stroke-width="2px"/><text text-anchor="middle" pointer-events="none" font-family="sans-serif" dy="1.5625" font-size="25" fill="#FFFFFF"/><text text-anchor="middle" pointer-events="none" y="5" font-size="10px" fill="#FFFFFF" font-family="sans-serif"> SEA</text></g><g class="node" transform="translate(28.365539220592023,39.50121153131161)"><circle class="outline" cx="0" cy="0" r="25" fill="#F79767" stroke="#f36924" stroke-width="2px"/><text text-anchor="middle" pointer-events="none" font-family="sans-serif" dy="1.5625" font-size="25" fill="#FFFFFF"/><text text-anchor="middle" pointer-events="none" y="5" font-size="10px" fill="#FFFFFF" font-family="sans-serif"> LAS</text></g><g class="node" transform="translate(26.299130206626764,146.1339827324121)"><circle class="outline" cx="0" cy="0" r="25" fill="#F79767" stroke="#f36924" stroke-width="2px"/><text text-anchor="middle" pointer-events="none" font-family="sans-serif" dy="1.5625" font-size="25" fill="#FFFFFF"/><text text-anchor="middle" pointer-events="none" y="5" font-size="10px" fill="#FFFFFF" font-family="sans-serif"> DEN</text></g></g></svg>