<svg xmlns="http://www.w3.org/2000/svg" width="238.63511657714844" height="228.74717712402344" viewBox="-25.667312622070312 -15.256543159484863 238.63511657714844 228.74717712402344"><title>Neo4j Graph Visualization</title><desc>Created using Neo4j (http://www.neo4j.com/)</desc><g class="layer relationships"><g class="relationship" transform="translate(167.58474604887292 184.49063295735291) rotate(278.9107836613895)"><path class="outline" fill="#A5ABB6" stroke="none" d="M 21.40063509461097,12.933012701892217 L 21.90063509461097,12.06698729810778 A 58.19418944956425 58.19418944956425 0 0 0 39.665543070082194,18.749505818574846 L 39.470812516112844,19.73036259270183 A 59.19418944956425 59.19418944956425 0 0 1 21.40063509461097,12.933012701892217 Z M 58.871315051027466,20.337549651380456 L 58.73830224512795,19.34643533230988 A 58.19418944956425 58.19418944956425 0 0 0 76.8863244518909,13.787901430624649 L 75.55172756804212,11.101109448051165 L 83.37793855853715,11.121640698739764 L 78.66578696368926,17.370290740722627 L 77.33119007984048,14.683498758149144 A 59.19418944956425 59.19418944956425 0 0 1 58.871315051027466,20.337549651380456"/><text text-anchor="middle" pointer-events="none" font-size="8px" fill="#000000" x="49.16164796886191" y="23.334804986496835" font-family="sans-serif">trek</text></g><g class="relationship" transform="translate(183.96780098973437 79.99930219436371) rotate(218.98307417496386)"><path class="outline" fill="#A5ABB6" stroke="none" d="M 25 0.5 L 39.493336582279724 0.5 L 39.493336582279724 -0.5 L 25 -0.5 Z M 58.82666959772162 0.5 L 73.32000618000134 0.5 L 73.32000618000134 3.5 L 80.32000618000134 0 L 73.32000618000134 -3.5 L 73.32000618000134 -0.5 L 58.82666959772162 -0.5 Z"/><text text-anchor="middle" pointer-events="none" font-size="8px" fill="#000000" x="49.16000309000067" y="3" transform="rotate(180 49.16000309000067 0)" font-family="sans-serif">trek</text></g><g class="relationship" transform="translate(102.09920722391875 13.74345674233301) rotate(519.0849467954883)"><path class="outline" fill="#A5ABB6" stroke="none" d="M 25 0.5 L 39.69993570652687 0.5 L 39.69993570652687 -0.5 L 25 -0.5 Z M 59.03326872196877 0.5 L 73.73320442849564 0.5 L 73.73320442849564 3.5 L 80.73320442849564 0 L 73.73320442849564 -3.5 L 73.73320442849564 -0.5 L 59.03326872196877 -0.5 Z"/><text text-anchor="middle" pointer-events="none" font-size="8px" fill="#000000" x="49.36660221424782" y="3" transform="rotate(180 49.36660221424782 0)" font-family="sans-serif">trek</text></g><g class="relationship" transform="translate(167.58474604887292 184.49063295735291) rotate(278.9107836613895)"><path class="outline" fill="#A5ABB6" stroke="none" d="M 25 0.5 L 25.63393587332476 0.5 L 25.63393587332476 -0.5 L 25 -0.5 Z M 73.13393587332476 0.5 L 73.76787174664952 0.5 L 73.76787174664952 3.5 L 80.76787174664952 0 L 73.76787174664952 -3.5 L 73.76787174664952 -0.5 L 73.13393587332476 -0.5 Z"/><text text-anchor="middle" pointer-events="none" font-size="8px" fill="#000000" x="49.38393587332476" y="3" font-family="sans-serif">PublicTra…</text></g><g class="relationship" transform="translate(167.58474604887292 184.49063295735291) rotate(278.9107836613895)"><path class="outline" fill="#A5ABB6" stroke="none" d="M 21.40063509461097,-12.933012701892217 L 21.90063509461097,-12.06698729810778 A 58.19418944956425 58.19418944956425 0 0 1 38.36384482030438,-18.475578528385007 L 38.146746083839666,-19.451728178093198 A 59.19418944956425 59.19418944956425 0 0 0 21.40063509461097,-12.933012701892217 Z M 60.210214137121206,-20.14225937682955 L 60.05458257254716,-19.154444203779335 A 58.19418944956425 58.19418944956425 0 0 1 76.8863244518909,-13.787901430624649 L 75.55172756804212,-11.101109448051165 L 83.37793855853715,-11.121640698739764 L 78.66578696368926,-17.370290740722627 L 77.33119007984048,-14.683498758149144 A 59.19418944956425 59.19418944956425 0 0 0 60.210214137121206,-20.14225937682955"/><text text-anchor="middle" pointer-events="none" font-size="8px" fill="#000000" x="49.16164796886189" y="-17.334804986496835" font-family="sans-serif">road</text></g></g><g class="layer nodes"><g class="node" transform="translate(167.58474604887292,184.49063295735291)"><circle class="outline" cx="0" cy="0" r="25" fill="#D9C8AE" stroke="#c0a378" stroke-width="2px"/><text text-anchor="middle" pointer-events="none" font-family="sans-serif" dy="1.5625" font-size="25" fill="#604A0E"/><text text-anchor="middle" pointer-events="none" y="5" font-size="10px" fill="#604A0E" font-family="sans-serif"> Darjeeling</text></g><g class="node" transform="translate(183.96780098973437,79.99930219436371)"><circle class="outline" cx="0" cy="0" r="25" fill="#D9C8AE" stroke="#c0a378" stroke-width="2px"/><text text-anchor="middle" pointer-events="none" font-family="sans-serif" dy="1.5625" font-size="25" fill="#604A0E"/><text text-anchor="middle" pointer-events="none" y="5" font-size="10px" fill="#604A0E" font-family="sans-serif"> Rimbik</text></g><g class="node" transform="translate(102.09920722391875,13.74345674233301)"><circle class="outline" cx="0" cy="0" r="25" fill="#8DCC93" stroke="#5db665" stroke-width="2px"/><text text-anchor="middle" pointer-events="none" font-family="sans-serif" dy="1.5625" font-size="25" fill="#604A0E"/><text text-anchor="middle" pointer-events="none" y="5" font-size="10px" fill="#604A0E" font-family="sans-serif"> BhikeBh…</text></g><g class="node" transform="translate(3.332687821828393,51.4884585825046)"><circle class="outline" cx="0" cy="0" r="25" fill="#ECB5C9" stroke="#da7298" stroke-width="2px"/><text text-anchor="middle" pointer-events="none" font-family="sans-serif" dy="1.5625" font-size="25" fill="#604A0E"/><text text-anchor="middle" pointer-events="none" y="5" font-size="10px" fill="#604A0E" font-family="sans-serif"> Sandak…</text></g></g></svg>