<svg xmlns="http://www.w3.org/2000/svg" width="201.01119995117188" height="302.6058349609375" viewBox="15.369464874267578 -53.97663116455078 201.01119995117188 302.6058349609375"><title>Neo4j Graph Visualization</title><desc>Created using Neo4j (http://www.neo4j.com/)</desc><g class="layer relationships"><g class="relationship" transform="translate(166.69219249004135 219.62919112534905) rotate(281.1525298382773)"><path class="outline" fill="#A5ABB6" stroke="none" d="M 24.018736134675446,-6.953439040707552 L 24.277555179777966,-5.987513214418485 A 105.62410369544303 105.62410369544303 0 0 1 27.08444985969118,-6.698529439442723 L 26.85220519090722,-7.671186837410488 A 106.62410369544303 106.62410369544303 0 0 0 24.018736134675446,-6.953439040707552 Z M 73.06181758468941,-8.407363611495867 L 72.86067420337754,-7.427801801218209 A 105.62410369544303 105.62410369544303 0 0 1 75.68879344154583,-6.806558377852408 L 75.00503733584904,-3.8855178803716988 L 82.61851395328362,-5.697967547473327 L 76.60046824914156,-10.701279041160019 L 75.91671214344477,-7.78023854367931 A 106.62410369544303 106.62410369544303 0 0 0 73.06181758468941,-8.407363611495867"/><text text-anchor="middle" pointer-events="none" font-size="8px" fill="#000000" x="49.92460998296949" y="-7.073102439409652" font-family="sans-serif">twowheeler</text></g><g class="relationship" transform="translate(187.3806619982683 114.68854284545561) rotate(243.49171997102587)"><path class="outline" fill="#A5ABB6" stroke="none" d="M 24.018736134675446,-6.953439040707552 L 24.277555179777966,-5.987513214418485 A 100.43379069639893 100.43379069639893 0 0 1 25.814415015488017,-6.38632034955512 L 25.570898189141293,-7.356217022034215 A 101.43379069639893 101.43379069639893 0 0 0 24.018736134675446,-6.953439040707552 Z M 71.75248153392916,-8.10912092106173 L 71.5407104031984,-7.13180163434474 A 100.43379069639893 100.43379069639893 0 0 1 73.08975363264152,-6.783304347452784 L 72.40816966103463,-3.8617562493293605 L 80.02029652353065,-5.679866430057308 L 73.99853226145069,-10.67870181161735 L 73.31694828984381,-7.757153713493926 A 101.43379069639893 101.43379069639893 0 0 0 71.75248153392916,-8.10912092106173"/><text text-anchor="middle" pointer-events="none" font-size="8px" fill="#000000" x="48.626415914700196" y="-6.896300635250739" transform="rotate(180 48.626415914700196 -9.89630063525074)" font-family="sans-serif">twowheeler</text></g><g class="relationship" transform="translate(140.79904697720818 21.294079053036693) rotate(205.63352549507164)"><path class="outline" fill="#A5ABB6" stroke="none" d="M 24.018736134675446,6.953439040707552 L 24.277555179777966,5.987513214418485 A 105.61560361296307 105.61560361296307 0 0 0 27.082365203668154,6.698028377616751 L 26.850102935480614,7.670681573147604 A 106.61560361296307 106.61560361296307 0 0 1 24.018736134675446,6.953439040707552 Z M 73.05967317649893,8.406885199839834 L 72.8585132374759,7.4273267896711275 A 105.61560361296307 105.61560361296307 0 0 0 75.684533655879,6.8065211340766805 L 75.00078102906221,3.885479822263176 L 82.6142554879133,5.697938556806457 L 76.59620382496803,10.701242883161353 L 75.91245119815125,7.780201571347849 A 106.61560361296307 106.61560361296307 0 0 1 73.05967317649893,8.406885199839834"/><text text-anchor="middle" pointer-events="none" font-size="8px" fill="#000000" x="49.92248221709885" y="13.072812878004711" transform="rotate(180 49.92248221709885 10.072812878004711)" font-family="sans-serif">twowheeler</text></g><g class="relationship" transform="translate(187.3806619982683 114.68854284545561) rotate(181.99486565150556)"><path class="outline" fill="#A5ABB6" stroke="none" d="M 24.018736134675446,-6.953439040707552 L 24.277555179777966,-5.987513214418485 A 110.21188496040688 110.21188496040688 0 0 1 28.211688100609365,-6.964484483430979 L 27.98856514148019,-7.939274791707291 A 111.21188496040688 111.21188496040688 0 0 0 24.018736134675446,-6.953439040707552 Z M 74.21935298242347,-8.661210761848977 L 74.02677587624576,-7.679928917435134 A 110.21188496040688 110.21188496040688 0 0 1 77.98949569334562,-6.8262742153398905 L 77.30389797314835,-3.9056654147539063 L 84.91851584807912,-5.713314334977255 L 78.90362598694198,-10.72041928278787 L 78.21802826674471,-7.799810482201885 A 111.21188496040688 111.21188496040688 0 0 0 74.21935298242347,-8.661210761848977"/><text text-anchor="middle" pointer-events="none" font-size="8px" fill="#000000" x="51.07383357772654" y="-7.229395675963659" transform="rotate(180 51.07383357772654 -10.229395675963659)" font-family="sans-serif">twowheeler</text></g><g class="relationship" transform="translate(78.18995459335045 110.88531594270167) rotate(304.9470255760326)"><path class="outline" fill="#A5ABB6" stroke="none" d="M 21.40063509461097,12.933012701892217 L 21.90063509461097,12.06698729810778 A 61.84821798849608 61.84821798849608 0 0 0 28.616567059847306,15.418532859018292 L 28.225154375434727,16.338748111272317 A 62.84821798849608 62.84821798849608 0 0 1 21.40063509461097,12.933012701892217 Z M 73.87304441096076,17.723670186139444 L 73.53813753538388,16.781418953881655 A 61.84821798849608 61.84821798849608 0 0 0 80.44489689139878,13.843175429828007 L 79.1051580742993,11.15894371442845 L 86.931394030181,11.164490142495781 L 82.23121531419811,17.42215105036075 L 80.89147649709862,14.737919334961193 A 62.84821798849608 62.84821798849608 0 0 1 73.87304441096076,17.723670186139444"/><text text-anchor="middle" pointer-events="none" font-size="8px" fill="#000000" x="50.934016813280174" y="23.824402317055032" font-family="sans-serif">twowheeler</text></g><g class="relationship" transform="translate(166.69219249004135 219.62919112534905) rotate(281.1525298382773)"><path class="outline" fill="#A5ABB6" stroke="none" d="M 24.018736134675446,6.953439040707552 L 24.277555179777966,5.987513214418485 A 105.62410369544303 105.62410369544303 0 0 0 40.33294543299108,8.982293189199012 L 40.22613137246582,9.97657220259218 A 106.62410369544303 106.62410369544303 0 0 1 24.018736134675446,6.953439040707552 Z M 59.62124171850823,10.285560506711803 L 59.54615403567683,9.288383571616023 A 105.62410369544303 105.62410369544303 0 0 0 75.68879344154583,6.806558377852408 L 75.00503733584904,3.8855178803716988 L 82.61851395328362,5.697967547473327 L 76.60046824914156,10.701279041160019 L 75.91671214344477,7.78023854367931 A 106.62410369544303 106.62410369544303 0 0 1 59.62124171850823,10.285560506711803"/><text text-anchor="middle" pointer-events="none" font-size="8px" fill="#000000" x="49.924609982969535" y="13.073102439409666" font-family="sans-serif">trek</text></g><g class="relationship" transform="translate(187.3806619982683 114.68854284545561) rotate(181.99486565150556)"><path class="outline" fill="#A5ABB6" stroke="none" d="M 24.018736134675446,6.953439040707552 L 24.277555179777966,5.987513214418485 A 110.21188496040688 110.21188496040688 0 0 0 41.478580462815124,9.159601335038204 L 41.37583374411566,10.154308885927662 A 111.21188496040688 111.21188496040688 0 0 1 24.018736134675446,6.953439040707552 Z M 60.7694492449771,10.45715790224422 L 60.69781158463501,9.459727180028025 A 110.21188496040688 110.21188496040688 0 0 0 77.98949569334562,6.8262742153398905 L 77.30389797314835,3.9056654147539063 L 84.91851584807912,5.713314334977255 L 78.90362598694198,10.72041928278787 L 78.21802826674471,7.799810482201885 A 111.21188496040688 111.21188496040688 0 0 1 60.7694492449771,10.45715790224422"/><text text-anchor="middle" pointer-events="none" font-size="8px" fill="#000000" x="51.073833577726546" y="13.229395675963659" transform="rotate(180 51.073833577726546 10.229395675963659)" font-family="sans-serif">trek</text></g><g class="relationship" transform="translate(187.3806619982683 114.68854284545561) rotate(243.49171997102587)"><path class="outline" fill="#A5ABB6" stroke="none" d="M 24.018736134675446,6.953439040707552 L 24.277555179777966,5.987513214418485 A 100.43379069639893 100.43379069639893 0 0 0 39.03926245509422,8.77961787150943 L 38.927422899394216,9.773344148600273 A 101.43379069639893 101.43379069639893 0 0 1 24.018736134675446,6.953439040707552 Z M 58.32426255927692,10.089573154862478 L 58.244875507682515,9.092729287429293 A 100.43379069639893 100.43379069639893 0 0 0 73.08975363264152,6.783304347452784 L 72.40816966103463,3.8617562493293605 L 80.02029652353065,5.679866430057308 L 73.99853226145069,10.67870181161735 L 73.31694828984381,7.757153713493926 A 101.43379069639893 101.43379069639893 0 0 1 58.32426255927692,10.089573154862478"/><text text-anchor="middle" pointer-events="none" font-size="8px" fill="#000000" x="48.62641591470023" y="12.896300635250753" transform="rotate(180 48.62641591470023 9.896300635250753)" font-family="sans-serif">trek</text></g><g class="relationship" transform="translate(140.79904697720818 21.294079053036693) rotate(205.63352549507164)"><path class="outline" fill="#A5ABB6" stroke="none" d="M 24.018736134675446,-6.953439040707552 L 24.277555179777966,-5.987513214418485 A 105.61560361296307 105.61560361296307 0 0 1 40.330824644177355,-8.981963151690309 L 40.22400273695256,-9.976241322091752 A 106.61560361296307 106.61560361296307 0 0 0 24.018736134675446,-6.953439040707552 Z M 59.61911588504468,-10.285241223308276 L 59.544021520252656,-9.28806479138838 A 105.61560361296307 105.61560361296307 0 0 1 75.684533655879,-6.8065211340766805 L 75.00078102906221,-3.885479822263176 L 82.6142554879133,-5.697938556806457 L 76.59620382496803,-10.701242883161353 L 75.91245119815125,-7.780201571347849 A 106.61560361296307 106.61560361296307 0 0 0 59.61911588504468,-10.285241223308276"/><text text-anchor="middle" pointer-events="none" font-size="8px" fill="#000000" x="49.92248221709882" y="-7.0728128780047115" transform="rotate(180 49.92248221709882 -10.072812878004711)" font-family="sans-serif">trek</text></g><g class="relationship" transform="translate(78.18995459335045 110.88531594270167) rotate(304.9470255760326)"><path class="outline" fill="#A5ABB6" stroke="none" d="M 25 0.5 L 40.166662718446 0.5 L 40.166662718446 -0.5 L 25 -0.5 Z M 62.13332894006465 0.5 L 77.29999165851065 0.5 L 77.29999165851065 3.5 L 84.29999165851065 0 L 77.29999165851065 -3.5 L 77.29999165851065 -0.5 L 62.13332894006465 -0.5 Z"/><text text-anchor="middle" pointer-events="none" font-size="8px" fill="#000000" x="51.149995829255325" y="3" font-family="sans-serif">road</text></g><g class="relationship" transform="translate(78.18995459335045 110.88531594270167) rotate(304.9470255760326)"><path class="outline" fill="#A5ABB6" stroke="none" d="M 21.40063509461097,-12.933012701892217 L 21.90063509461097,-12.06698729810778 A 61.84821798849608 61.84821798849608 0 0 1 41.42529654627666,-19.293465708555182 L 41.24098327237275,-20.27633325663215 A 62.84821798849608 62.84821798849608 0 0 0 21.40063509461097,-12.933012701892217 Z M 60.64244789596705,-20.864958856217534 L 60.518057673661325,-19.872725480143778 A 61.84821798849608 61.84821798849608 0 0 1 80.44489689139878,-13.843175429828007 L 79.1051580742993,-11.15894371442845 L 86.931394030181,-11.164490142495781 L 82.23121531419811,-17.42215105036075 L 80.89147649709862,-14.737919334961193 A 62.84821798849608 62.84821798849608 0 0 0 60.64244789596705,-20.864958856217534"/><text text-anchor="middle" pointer-events="none" font-size="8px" fill="#000000" x="50.93401681328019" y="-17.824402317055032" font-family="sans-serif">trek</text></g></g><g class="layer nodes"><g class="node" transform="translate(166.69219249004135,219.62919112534905)"><circle class="outline" cx="0" cy="0" r="25" fill="#D9C8AE" stroke="#c0a378" stroke-width="2px"/><text text-anchor="middle" pointer-events="none" font-family="sans-serif" dy="1.5625" font-size="25" fill="#604A0E"/><text text-anchor="middle" pointer-events="none" y="5" font-size="10px" fill="#604A0E" font-family="sans-serif"> Rimbik</text></g><g class="node" transform="translate(187.3806619982683,114.68854284545561)"><circle class="outline" cx="0" cy="0" r="25" fill="#8DCC93" stroke="#5db665" stroke-width="2px"/><text text-anchor="middle" pointer-events="none" font-family="sans-serif" dy="1.5625" font-size="25" fill="#604A0E"/><text text-anchor="middle" pointer-events="none" y="5" font-size="10px" fill="#604A0E" font-family="sans-serif"> Sirikhola</text></g><g class="node" transform="translate(140.79904697720818,21.294079053036693)"><circle class="outline" cx="0" cy="0" r="25" fill="#8DCC93" stroke="#5db665" stroke-width="2px"/><text text-anchor="middle" pointer-events="none" font-family="sans-serif" dy="1.5625" font-size="25" fill="#604A0E"/><text text-anchor="middle" pointer-events="none" y="5" font-size="10px" fill="#604A0E" font-family="sans-serif"> Gurdum</text></g><g class="node" transform="translate(44.369464901168676,-24.976631197407915)"><circle class="outline" cx="0" cy="0" r="25" fill="#ECB5C9" stroke="#da7298" stroke-width="2px"/><text text-anchor="middle" pointer-events="none" font-family="sans-serif" dy="1.5625" font-size="25" fill="#604A0E"/><text text-anchor="middle" pointer-events="none" y="5" font-size="10px" fill="#604A0E" font-family="sans-serif"> Sandak…</text></g><g class="node" transform="translate(78.18995459335045,110.88531594270167)"><circle class="outline" cx="0" cy="0" r="25" fill="#8DCC93" stroke="#5db665" stroke-width="2px"/><text text-anchor="middle" pointer-events="none" font-family="sans-serif" dy="1.5625" font-size="25" fill="#604A0E"/><text text-anchor="middle" pointer-events="none" y="5" font-size="10px" fill="#604A0E" font-family="sans-serif"> Rammam</text></g></g></svg>