<svg xmlns="http://www.w3.org/2000/svg" width="417.39129638671875" height="299.73052978515625" viewBox="-176.9315185546875 -16.88384437561035 417.39129638671875 299.73052978515625"><title>Neo4j Graph Visualization</title><desc>Created using Neo4j (http://www.neo4j.com/)</desc><g class="layer relationships"><g class="relationship" transform="translate(-143.74279587939347 186.84169931267968) rotate(341.59863444954044)"><path class="outline" fill="#A5ABB6" stroke="none" d="M 5.987513214418485,-24.277555179777966 L 6.953439040707552,-24.018736134675446 A 92.87871146110909 92.87871146110909 0 0 1 82.81418533623919,-91.81972968480918 L 82.6650316755211,-92.80854371459152 A 93.87871146110909 93.87871146110909 0 0 0 5.987513214418485,-24.277555179777966 Z M 104.27825516314468,-93.54964798824359 L 104.19718385431173,-92.55293968443344 A 92.87871146110909 92.87871146110909 0 0 1 184.52400026813933,-30.10752256099615 L 181.68621493285892,-29.134396469028847 L 187.26759203860976,-23.648211127336452 L 188.3077140485132,-31.40502401695255 L 185.46992871323278,-30.431897924985247 A 93.87871146110909 93.87871146110909 0 0 0 104.27825516314468,-93.54964798824359"/><text text-anchor="middle" pointer-events="none" font-size="8px" fill="#000000" x="93.46736667131914" y="-90.30382095948593" font-family="sans-serif">LOT</text></g><g class="relationship" transform="translate(41.64426013725426 125.1667265405681) rotate(342.99344458282053)"><path class="outline" fill="#A5ABB6" stroke="none" d="M 5.987513214418485,24.277555179777966 L 6.953439040707552,24.018736134675446 A 83.56085621881653 83.56085621881653 0 0 0 73.86735754479746,84.80509998303577 L 73.70221238941087,85.79136925542156 A 84.56085621881653 84.56085621881653 0 0 1 5.987513214418485,24.277555179777966 Z M 95.3143069207998,86.60594978458974 L 95.2238717107811,85.6100474436 A 83.56085621881653 83.56085621881653 0 0 0 166.5236351894423,30.033089562082132 L 163.69252703802545,29.040705243896337 L 169.31104995711195,23.592567928473787 L 170.2984460579981,31.356268652996523 L 167.46733790658124,30.363884334810727 A 84.56085621881653 84.56085621881653 0 0 1 95.3143069207998,86.60594978458974"/><text text-anchor="middle" pointer-events="none" font-size="8px" fill="#000000" x="84.5009420843796" y="89.39280610785255" font-family="sans-serif">LOT</text></g><g class="relationship" transform="translate(-143.74279587939347 186.84169931267968) rotate(341.59863444954044)"><path class="outline" fill="#A5ABB6" stroke="none" d="M 14.44320574945421,-20.411854586953456 L 15.247803529220876,-19.818034401379958 A 101.19289870254961 101.19289870254961 0 0 1 71.40860306244159,-57.71742693665717 L 71.15899283865255,-58.68577332931839 A 102.19289870254961 102.19289870254961 0 0 0 14.44320574945421,-20.411854586953456 Z M 116.55308117447206,-59.96710002492812 L 116.3584913715259,-58.98621531784509 A 101.19289870254961 101.19289870254961 0 0 1 174.56771865377394,-24.315114701377574 L 172.2582581728766,-22.400332132213787 L 179.420454728639,-19.24550400747777 L 177.64699929497039,-26.86815812692929 L 175.33753881407304,-24.953375557765504 A 102.19289870254961 102.19289870254961 0 0 0 116.55308117447206,-59.96710002492812"/><text text-anchor="middle" pointer-events="none" font-size="8px" fill="#000000" x="93.79806994622773" y="-58.380059587198836" font-family="sans-serif">LOTBiznes</text></g><g class="relationship" transform="translate(-143.74279587939347 186.84169931267968) rotate(341.59863444954044)"><path class="outline" fill="#A5ABB6" stroke="none" d="M 20.90208894244944,-13.724164012497553 L 21.434121018964774,-12.87743981326927 A 141.40738398187915 141.40738398187915 0 0 1 83.33011417720002,-33.921391949887976 L 83.23579611119327,-34.91693406473033 A 142.40738398187915 142.40738398187915 0 0 0 20.90208894244944,-13.724164012497553 Z M 104.84585305156887,-35.31673082023093 L 104.7884229684549,-34.31838128947854 A 141.40738398187915 141.40738398187915 0 0 1 167.42044120548627,-15.578259034573607 L 165.9193939321464,-12.980787748264753 L 173.73138208576356,-12.50872727783208 L 169.4218375699394,-19.041554082985414 L 167.92079029659953,-16.444082796676557 A 142.40738398187915 142.40738398187915 0 0 0 104.84585305156887,-35.31673082023093"/><text text-anchor="middle" pointer-events="none" font-size="8px" fill="#000000" x="94.04247744491799" y="-32.02749085914823" font-family="sans-serif">LOT</text></g><g class="relationship" transform="translate(-143.74279587939347 186.84169931267968) rotate(341.59863444954044)"><path class="outline" fill="#A5ABB6" stroke="none" d="M 24.471206027250748,-5.139073415689509 L 24.657117634413662,-4.15650694245622 A 387.3360497385685 387.3360497385685 0 0 1 83.41234800684582,-10.682273406648505 L 83.3781269805418,-11.681687695799212 A 388.3360497385685 388.3360497385685 0 0 0 24.471206027250748,-5.139073415689509 Z M 104.96128833950974,-11.820561541401275 L 104.93993079829859,-10.820789639699 A 387.3360497385685 387.3360497385685 0 0 1 163.77427111594284,-5.051636889912435 L 163.25451402639908,-2.097004498587076 L 170.7550395439593,-4.331309079531244 L 164.46728056866783,-8.991146745012914 L 163.94752347912407,-6.036514353687555 A 388.3360497385685 388.3360497385685 0 0 0 104.96128833950974,-11.820561541401275"/><text text-anchor="middle" pointer-events="none" font-size="8px" fill="#000000" x="94.17195976629299" y="-8.401112182836414" font-family="sans-serif">LOT</text></g><g class="relationship" transform="translate(41.64426013725426 125.1667265405681) rotate(342.99344458282053)"><path class="outline" fill="#A5ABB6" stroke="none" d="M 9.265372650015623,23.225048324090576 L 10.18659379640068,22.83600899516225 A 84.10622643317248 84.10622643317248 0 0 0 74.00547064151765,73.10465053101605 L 73.84303846417313,74.09137024185755 A 85.10622643317248 85.10622643317248 0 0 1 9.265372650015623,23.225048324090576 Z M 95.45659808974726,74.86437542654818 L 95.36507047435505,73.86857288807953 A 84.10622643317248 84.10622643317248 0 0 0 162.6119964397407,28.287476896009387 L 159.9387709906118,26.92590952781582 L 166.2345245403805,22.27687874274087 L 166.17629703857924,30.102900053600813 L 163.50307158945034,28.741332685407244 A 85.10622643317248 85.10622643317248 0 0 1 95.45659808974726,74.86437542654818"/><text text-anchor="middle" pointer-events="none" font-size="8px" fill="#000000" x="84.64303463072035" y="77.66754651995241" font-family="sans-serif">LOT</text></g><g class="relationship" transform="translate(41.64426013725426 125.1667265405681) rotate(342.99344458282053)"><path class="outline" fill="#A5ABB6" stroke="none" d="M 12.367599250055083,21.732291383791928 L 13.226653204424967,21.22040633470233 A 86.65389938105339 86.65389938105339 0 0 0 74.13000034443569,62.453565285616605 L 73.97378085654714,63.441287651265895 A 87.65389938105339 87.65389938105339 0 0 1 12.367599250055083,21.732291383791928 Z M 95.58891474659745,64.15875845927204 L 95.49853785893761,63.16285082390773 A 86.65389938105339 86.65389938105339 0 0 0 159.00211987664122,26.059129166251804 L 156.5324644223496,24.355955089098327 L 163.3878019657146,20.580462119096914 L 162.2949938156967,28.330027935789776 L 159.82533836140507,26.6268538586363 A 87.65389938105339 87.65389938105339 0 0 1 95.58891474659745,64.15875845927204"/><text text-anchor="middle" pointer-events="none" font-size="8px" fill="#000000" x="84.77572242716238" y="66.96949785437579" font-family="sans-serif">LOT</text></g><g class="relationship" transform="translate(41.64426013725426 125.1667265405681) rotate(521.5986344495404)"><path class="outline" fill="#A5ABB6" stroke="none" d="M 24.471206027250748,-5.139073415689509 L 24.657117634413662,-4.15650694245622 A 387.3360497385685 387.3360497385685 0 0 1 83.41234800684582,-10.682273406648505 L 83.3781269805418,-11.681687695799212 A 388.3360497385685 388.3360497385685 0 0 0 24.471206027250748,-5.139073415689509 Z M 104.96128833950974,-11.820561541401275 L 104.93993079829859,-10.820789639699 A 387.3360497385685 387.3360497385685 0 0 1 163.77427111594284,-5.051636889912435 L 163.25451402639908,-2.097004498587076 L 170.7550395439593,-4.331309079531244 L 164.46728056866783,-8.991146745012914 L 163.94752347912407,-6.036514353687555 A 388.3360497385685 388.3360497385685 0 0 0 104.96128833950974,-11.820561541401275"/><text text-anchor="middle" pointer-events="none" font-size="8px" fill="#000000" x="94.17195976629299" y="-8.401112182836414" transform="rotate(180 94.17195976629299 -11.401112182836414)" font-family="sans-serif">LOT</text></g><g class="relationship" transform="translate(41.64426013725426 125.1667265405681) rotate(342.99344458282053)"><path class="outline" fill="#A5ABB6" stroke="none" d="M 15.235387732235946,19.82758080675589 L 16.015990413247987,19.20255324384621 A 91.78938204919623 91.78938204919623 0 0 0 74.23885003394474,52.633502468627526 L 74.09255666323496,53.62274371811442 A 92.78938204919623 92.78938204919623 0 0 1 15.235387732235946,19.82758080675589 Z M 95.70895543794688,54.27189328733331 L 95.62228682208743,53.27565609116715 A 91.78938204919623 91.78938204919623 0 0 0 155.74630912234898,23.398713628477037 L 153.52123865755692,21.386485652647735 L 160.81235281008267,18.54225387326714 L 158.7130697420717,26.081684262916106 L 156.48799927727964,24.069456287086805 A 92.78938204919623 92.78938204919623 0 0 1 95.70895543794688,54.27189328733331"/><text text-anchor="middle" pointer-events="none" font-size="8px" fill="#000000" x="84.89678793096846" y="57.07945516307497" font-family="sans-serif">LOT</text></g><g class="relationship" transform="translate(41.64426013725426 125.1667265405681) rotate(342.99344458282053)"><path class="outline" fill="#A5ABB6" stroke="none" d="M 17.814376783534897,17.547021964260857 L 18.501731218904354,16.82069980421207 A 100.62537368105836 100.62537368105836 0 0 0 74.33048085350079,43.47192862105521 L 74.19794422990465,44.46310672987609 A 101.62537368105836 101.62537368105836 0 0 1 17.814376783534897,17.547021964260857 Z M 95.81462975450518,45.03249973572599 L 95.7344568475815,44.03571876430077 A 100.62537368105836 100.62537368105836 0 0 0 152.8888268543287,20.360515019833887 L 150.94433324384732,18.076014068029075 L 158.54341134362016,16.20411342067814 L 155.48148500163722,23.40651628890697 L 153.53699139115585,21.12201533710216 A 101.62537368105836 101.62537368105836 0 0 1 95.81462975450518,45.03249973572599"/><text text-anchor="middle" pointer-events="none" font-size="8px" fill="#000000" x="85.00426487909859" y="47.824571620655306" font-family="sans-serif">LOT</text></g><g class="relationship" transform="translate(41.64426013725426 125.1667265405681) rotate(342.99344458282053)"><path class="outline" fill="#A5ABB6" stroke="none" d="M 20.055679524053907,14.933844743683553 L 20.636756339455843,14.119996026413359 A 115.35526803537564 115.35526803537564 0 0 0 74.40395665398755,34.82852395616699 L 74.28898079114933,35.82189224183179 A 116.35526803537564 116.35526803537564 0 0 1 20.055679524053907,14.933844743683553 Z M 95.90406820939539,36.3016020277781 L 95.83327605516648,35.304110939647686 A 115.35526803537564 115.35526803537564 0 0 0 150.46626524308556,17.001339262300796 L 148.83306968513656,14.484859127371113 L 156.6102514842463,13.609962982908122 L 152.64385932035086,20.356646108873708 L 151.01066376240186,17.840165973944025 A 116.35526803537564 116.35526803537564 0 0 1 95.90406820939539,36.3016020277781"/><text text-anchor="middle" pointer-events="none" font-size="8px" fill="#000000" x="85.09645217777786" y="39.065005890591735" font-family="sans-serif">LOT</text></g><g class="relationship" transform="translate(41.64426013725426 125.1667265405681) rotate(342.99344458282053)"><path class="outline" fill="#A5ABB6" stroke="none" d="M 21.916810198440235,12.037584090071652 L 22.380594600123676,11.151635994100372 A 140.76892903726213 140.76892903726213 0 0 0 74.45893714315213,26.585585042824405 L 74.36510897328205,27.58117344901386 A 141.76892903726213 141.76892903726213 0 0 1 21.916810198440235,12.037584090071652 Z M 95.97564692335482,27.96292030486235 L 95.91704015492897,26.96463915874436 A 140.76892903726213 140.76892903726213 0 0 0 148.50799768465384,13.379657326799215 L 147.21138407883618,10.67433051526451 L 155.03652917920442,10.805113381813797 L 150.23681582574406,16.98675974217882 L 148.9402022199264,14.281432930644115 A 141.76892903726213 141.76892903726213 0 0 1 95.97564692335482,27.96292030486235"/><text text-anchor="middle" pointer-events="none" font-size="8px" fill="#000000" x="85.17192331513677" y="30.68456427488762" font-family="sans-serif">LOT</text></g><g class="relationship" transform="translate(41.64426013725426 125.1667265405681) rotate(342.99344458282053)"><path class="outline" fill="#A5ABB6" stroke="none" d="M 23.36248952867312,8.913141030110477 L 23.700190098026855,7.971887437576477 A 189.4188042195964 189.4188042195964 0 0 0 74.49560239324124,18.64106265858632 L 74.42606639447749,19.63864210147591 A 190.4188042195964 190.4188042195964 0 0 1 23.36248952867312,8.913141030110477 Z M 96.02803474037648,19.915913447486275 L 95.98412622700589,18.916877891335474 A 189.4188042195964 189.4188042195964 0 0 0 147.03664684329746,9.554968424749692 L 146.09635553021567,6.7061349360138305 L 153.8406402025281,7.835760942348177 L 148.29036859407316,13.353413076397507 L 147.35007728099137,10.504579587661645 A 190.4188042195964 190.4188042195964 0 0 1 96.02803474037648,19.915913447486275"/><text text-anchor="middle" pointer-events="none" font-size="8px" fill="#000000" x="85.22953241576401" y="22.583919138663504" font-family="sans-serif">LOT</text></g><g class="relationship" transform="translate(41.64426013725426 125.1667265405681) rotate(342.99344458282053)"><path class="outline" fill="#A5ABB6" stroke="none" d="M 24.365313462086043,5.619741977554534 L 24.57052880428168,4.6410251322271785 A 307.4648252412664 307.4648252412664 0 0 0 74.51450657102077,10.903402932882159 L 74.47172924991438,11.902487564331864 A 308.4648252412664 308.4648252412664 0 0 1 24.365313462086043,5.619741977554534 Z M 96.06026102795185,12.070636779843994 L 96.03305133591614,11.07100703205765 A 307.4648252412664 307.4648252412664 0 0 0 146.06851685890044,5.587351245912618 L 145.4986810539385,2.6419672038251703 L 153.03605225793146,4.748631708016038 L 146.828297932183,9.514529968695882 L 146.25846212722107,6.569145926608435 A 308.4648252412664 308.4648252412664 0 0 1 96.06026102795185,12.070636779843994"/><text text-anchor="middle" pointer-events="none" font-size="8px" fill="#000000" x="85.26841790350208" y="14.675505532729801" font-family="sans-serif">LOT</text></g><g class="relationship" transform="translate(41.64426013725426 125.1667265405681) rotate(342.99344458282053)"><path class="outline" fill="#A5ABB6" stroke="none" d="M 24.906272637950263,2.219816047353928 L 24.97511272569896,1.2221883400809435 A 910.689068736353 910.689068736353 0 0 0 74.51638247163248,3.2876546488540725 L 74.5019421471473,4.287550381932647 A 911.689068736353 911.689068736353 0 0 1 24.906272637950263,2.219816047353928 Z M 96.0717891853632,4.3438672882629135 L 96.06257029556372,3.343909783130357 A 910.689068736353 910.689068736353 0 0 0 145.61395003109445,1.537165358150358 L 145.42306076748812,-1.4567553637525843 L 152.6315799261357,1.5907438633860798 L 145.8684690492362,5.529059654020948 L 145.6775797856299,2.5351389321180053 A 911.689068736353 911.689068736353 0 0 1 96.0717891853632,4.3438672882629135"/><text text-anchor="middle" pointer-events="none" font-size="8px" fill="#000000" x="85.28800455815829" y="6.879503692761773" font-family="sans-serif">LOT</text></g><g class="relationship" transform="translate(41.64426013725426 125.1667265405681) rotate(521.5986344495404)"><path class="outline" fill="#A5ABB6" stroke="none" d="M 20.90208894244944,-13.724164012497553 L 21.434121018964774,-12.87743981326927 A 141.40738398187915 141.40738398187915 0 0 1 83.33011417720002,-33.921391949887976 L 83.23579611119327,-34.91693406473033 A 142.40738398187915 142.40738398187915 0 0 0 20.90208894244944,-13.724164012497553 Z M 104.84585305156887,-35.31673082023093 L 104.7884229684549,-34.31838128947854 A 141.40738398187915 141.40738398187915 0 0 1 167.42044120548627,-15.578259034573607 L 165.9193939321464,-12.980787748264753 L 173.73138208576356,-12.50872727783208 L 169.4218375699394,-19.041554082985414 L 167.92079029659953,-16.444082796676557 A 142.40738398187915 142.40738398187915 0 0 0 104.84585305156887,-35.31673082023093"/><text text-anchor="middle" pointer-events="none" font-size="8px" fill="#000000" x="94.04247744491799" y="-32.02749085914823" transform="rotate(180 94.04247744491799 -35.02749085914823)" font-family="sans-serif">LOT</text></g><g class="relationship" transform="translate(41.64426013725426 125.1667265405681) rotate(342.99344458282053)"><path class="outline" fill="#A5ABB6" stroke="none" d="M 24.906272637950263,-2.219816047353928 L 24.97511272569896,-1.2221883400809435 A 910.689068736353 910.689068736353 0 0 1 74.51638247163228,-3.2876546488540725 L 74.5019421471471,-4.287550381932647 A 911.689068736353 911.689068736353 0 0 0 24.906272637950263,-2.219816047353928 Z M 96.07178918536277,-4.3438672882629135 L 96.06257029556329,-3.343909783130357 A 910.689068736353 910.689068736353 0 0 1 145.61395003109445,-1.537165358150358 L 145.42306076748812,1.4567553637525843 L 152.6315799261357,-1.5907438633860798 L 145.8684690492362,-5.529059654020948 L 145.6775797856299,-2.5351389321180053 A 911.689068736353 911.689068736353 0 0 0 96.07178918536277,-4.3438672882629135"/><text text-anchor="middle" pointer-events="none" font-size="8px" fill="#000000" x="85.28800455815798" y="-0.879503692761773" font-family="sans-serif">LOT</text></g><g class="relationship" transform="translate(41.64426013725426 125.1667265405681) rotate(342.99344458282053)"><path class="outline" fill="#A5ABB6" stroke="none" d="M 24.365313462086043,-5.619741977554534 L 24.57052880428168,-4.6410251322271785 A 307.4648252412664 307.4648252412664 0 0 1 74.51450657102083,-10.903402932882159 L 74.47172924991443,-11.902487564331864 A 308.4648252412664 308.4648252412664 0 0 0 24.365313462086043,-5.619741977554534 Z M 96.06026102795185,-12.070636779843937 L 96.03305133591616,-11.07100703205765 A 307.4648252412664 307.4648252412664 0 0 1 146.06851685890044,-5.587351245912618 L 145.4986810539385,-2.6419672038251703 L 153.03605225793146,-4.748631708016038 L 146.828297932183,-9.514529968695882 L 146.25846212722107,-6.569145926608435 A 308.4648252412664 308.4648252412664 0 0 0 96.06026102795185,-12.070636779843937"/><text text-anchor="middle" pointer-events="none" font-size="8px" fill="#000000" x="85.26841790350211" y="-8.675505532729801" font-family="sans-serif">LOT</text></g><g class="relationship" transform="translate(41.64426013725426 125.1667265405681) rotate(342.99344458282053)"><path class="outline" fill="#A5ABB6" stroke="none" d="M 23.36248952867312,-8.913141030110477 L 23.700190098026855,-7.971887437576477 A 189.4188042195964 189.4188042195964 0 0 1 74.49560239324126,-18.64106265858632 L 74.42606639447749,-19.63864210147591 A 190.4188042195964 190.4188042195964 0 0 0 23.36248952867312,-8.913141030110477 Z M 96.02803474037643,-19.915913447486275 L 95.98412622700583,-18.916877891335474 A 189.4188042195964 189.4188042195964 0 0 1 147.03664684329746,-9.554968424749692 L 146.09635553021567,-6.7061349360138305 L 153.8406402025281,-7.835760942348177 L 148.29036859407316,-13.353413076397507 L 147.35007728099137,-10.504579587661645 A 190.4188042195964 190.4188042195964 0 0 0 96.02803474037643,-19.915913447486275"/><text text-anchor="middle" pointer-events="none" font-size="8px" fill="#000000" x="85.22953241576398" y="-16.583919138663504" font-family="sans-serif">LOT</text></g><g class="relationship" transform="translate(41.64426013725426 125.1667265405681) rotate(342.99344458282053)"><path class="outline" fill="#A5ABB6" stroke="none" d="M 21.916810198440235,-12.037584090071652 L 22.380594600123676,-11.151635994100372 A 140.76892903726213 140.76892903726213 0 0 1 74.45893714315207,-26.585585042824405 L 74.36510897328199,-27.58117344901386 A 141.76892903726213 141.76892903726213 0 0 0 21.916810198440235,-12.037584090071652 Z M 95.97564692335474,-27.96292030486235 L 95.91704015492891,-26.96463915874436 A 140.76892903726213 140.76892903726213 0 0 1 148.50799768465384,-13.379657326799215 L 147.21138407883618,-10.67433051526451 L 155.03652917920442,-10.805113381813797 L 150.23681582574406,-16.98675974217882 L 148.9402022199264,-14.281432930644115 A 141.76892903726213 141.76892903726213 0 0 0 95.97564692335474,-27.96292030486235"/><text text-anchor="middle" pointer-events="none" font-size="8px" fill="#000000" x="85.1719233151367" y="-24.68456427488762" font-family="sans-serif">LOT</text></g><g class="relationship" transform="translate(41.64426013725426 125.1667265405681) rotate(521.5986344495404)"><path class="outline" fill="#A5ABB6" stroke="none" d="M 14.44320574945421,-20.411854586953456 L 15.247803529220876,-19.818034401379958 A 101.19289870254961 101.19289870254961 0 0 1 83.12624264698249,-60.010449669866354 L 82.9924275010574,-61.00145597999815 A 102.19289870254961 102.19289870254961 0 0 0 14.44320574945421,-20.411854586953456 Z M 104.60786381294001,-61.61158907439522 L 104.53016292804186,-60.614612358274904 A 101.19289870254961 101.19289870254961 0 0 1 174.56771865377394,-24.315114701377574 L 172.2582581728766,-22.400332132213787 L 179.420454728639,-19.24550400747777 L 177.64699929497039,-26.86815812692929 L 175.33753881407304,-24.953375557765504 A 102.19289870254961 102.19289870254961 0 0 0 104.60786381294001,-61.61158907439522"/><text text-anchor="middle" pointer-events="none" font-size="8px" fill="#000000" x="93.79806994622773" y="-58.380059587198836" transform="rotate(180 93.79806994622773 -61.380059587198836)" font-family="sans-serif">LOT</text></g><g class="relationship" transform="translate(41.64426013725426 125.1667265405681) rotate(342.99344458282053)"><path class="outline" fill="#A5ABB6" stroke="none" d="M 20.055679524053907,-14.933844743683553 L 20.636756339455843,-14.119996026413359 A 115.35526803537564 115.35526803537564 0 0 1 74.40395665398754,-34.82852395616699 L 74.28898079114933,-35.82189224183179 A 116.35526803537564 116.35526803537564 0 0 0 20.055679524053907,-14.933844743683553 Z M 95.90406820939542,-36.3016020277781 L 95.83327605516651,-35.30411093964767 A 115.35526803537564 115.35526803537564 0 0 1 150.46626524308556,-17.001339262300796 L 148.83306968513656,-14.484859127371113 L 156.6102514842463,-13.609962982908122 L 152.64385932035086,-20.356646108873708 L 151.01066376240186,-17.840165973944025 A 116.35526803537564 116.35526803537564 0 0 0 95.90406820939542,-36.3016020277781"/><text text-anchor="middle" pointer-events="none" font-size="8px" fill="#000000" x="85.09645217777788" y="-33.065005890591735" font-family="sans-serif">LOT</text></g><g class="relationship" transform="translate(41.64426013725426 125.1667265405681) rotate(342.99344458282053)"><path class="outline" fill="#A5ABB6" stroke="none" d="M 17.814376783534897,-17.547021964260857 L 18.501731218904354,-16.82069980421207 A 100.62537368105836 100.62537368105836 0 0 1 62.61104987426219,-41.19021920289603 L 62.36204728834938,-42.15872202282415 A 101.62537368105836 101.62537368105836 0 0 0 17.814376783534897,-17.547021964260857 Z M 107.75542699300937,-43.35440361269174 L 107.5577558983203,-42.37413521152581 A 100.62537368105836 100.62537368105836 0 0 1 152.8888268543287,-20.360515019833887 L 150.94433324384732,-18.076014068029075 L 158.54341134362016,-16.20411342067814 L 155.48148500163722,-23.40651628890697 L 153.53699139115585,-21.12201533710216 A 101.62537368105836 101.62537368105836 0 0 0 107.75542699300937,-43.35440361269174"/><text text-anchor="middle" pointer-events="none" font-size="8px" fill="#000000" x="85.00426487909859" y="-41.824571620655306" font-family="sans-serif">LOTBiznes</text></g><g class="relationship" transform="translate(41.64426013725426 125.1667265405681) rotate(342.99344458282053)"><path class="outline" fill="#A5ABB6" stroke="none" d="M 15.235387732235946,-19.82758080675589 L 16.015990413247987,-19.20255324384621 A 91.78938204919623 91.78938204919623 0 0 1 62.573256387777946,-50.124316461616075 L 62.29987213372489,-51.086221368369266 A 92.78938204919623 92.78938204919623 0 0 0 15.235387732235946,-19.82758080675589 Z M 107.63259763335189,-52.447582228533804 L 107.41742679092212,-51.4710058062462 A 91.78938204919623 91.78938204919623 0 0 1 155.74630912234898,-23.398713628477037 L 153.52123865755692,-21.386485652647735 L 160.81235281008267,-18.54225387326714 L 158.7130697420717,-26.081684262916106 L 156.48799927727964,-24.069456287086805 A 92.78938204919623 92.78938204919623 0 0 0 107.63259763335189,-52.447582228533804"/><text text-anchor="middle" pointer-events="none" font-size="8px" fill="#000000" x="84.89678793096842" y="-51.07945516307497" font-family="sans-serif">LOTBiznes</text></g><g class="relationship" transform="translate(41.64426013725426 125.1667265405681) rotate(342.99344458282053)"><path class="outline" fill="#A5ABB6" stroke="none" d="M 12.367599250055083,-21.732291383791928 L 13.226653204424967,-21.22040633470233 A 86.65389938105339 86.65389938105339 0 0 1 62.50506949591038,-59.783858516867355 L 62.21469642772644,-60.740772035046206 A 87.65389938105339 87.65389938105339 0 0 0 12.367599250055083,-21.732291383791928 Z M 107.5011950226943,-62.243966088988955 L 107.27491681906093,-61.269903373061254 A 86.65389938105339 86.65389938105339 0 0 1 159.00211987664122,-26.059129166251804 L 156.5324644223496,-24.355955089098327 L 163.3878019657146,-20.580462119096914 L 162.2949938156967,-28.330027935789776 L 159.82533836140507,-26.6268538586363 A 87.65389938105339 87.65389938105339 0 0 0 107.5011950226943,-62.243966088988955"/><text text-anchor="middle" pointer-events="none" font-size="8px" fill="#000000" x="84.77572242716239" y="-60.96949785437579" font-family="sans-serif">LOTBiznes</text></g><g class="relationship" transform="translate(41.64426013725426 125.1667265405681) rotate(342.99344458282053)"><path class="outline" fill="#A5ABB6" stroke="none" d="M 9.265372650015623,-23.225048324090576 L 10.18659379640068,-22.83600899516225 A 84.10622643317248 84.10622643317248 0 0 1 62.405860978810594,-70.33838552465964 L 62.10551261910206,-71.29221510211066 A 85.10622643317248 85.10622643317248 0 0 0 9.265372650015623,-23.225048324090576 Z M 107.36410162953487,-72.91088063258866 L 107.13266059019197,-71.93803170017013 A 84.10622643317248 84.10622643317248 0 0 1 162.6119964397407,-28.287476896009387 L 159.9387709906118,-26.92590952781582 L 166.2345245403805,-22.27687874274087 L 166.17629703857924,-30.102900053600813 L 163.50307158945034,-28.741332685407244 A 85.10622643317248 85.10622643317248 0 0 0 107.36410162953487,-72.91088063258866"/><text text-anchor="middle" pointer-events="none" font-size="8px" fill="#000000" x="84.64303463072032" y="-71.66754651995241" font-family="sans-serif">LOTBiznes</text></g><g class="relationship" transform="translate(41.64426013725426 125.1667265405681) rotate(342.99344458282053)"><path class="outline" fill="#A5ABB6" stroke="none" d="M 5.987513214418485,-24.277555179777966 L 6.953439040707552,-24.018736134675446 A 83.56085621881653 83.56085621881653 0 0 1 62.277262236350694,-82.00174824101154 L 61.97341463303687,-82.95446888944971 A 84.56085621881653 84.56085621881653 0 0 0 5.987513214418485,-24.277555179777966 Z M 107.22337550952349,-84.65998322643699 L 106.99210600428542,-83.68709350198364 A 83.56085621881653 83.56085621881653 0 0 1 166.5236351894423,-30.033089562082132 L 163.69252703802545,-29.040705243896337 L 169.31104995711195,-23.592567928473787 L 170.2984460579981,-31.356268652996523 L 167.46733790658124,-30.363884334810727 A 84.56085621881653 84.56085621881653 0 0 0 107.22337550952349,-84.65998322643699"/><text text-anchor="middle" pointer-events="none" font-size="8px" fill="#000000" x="84.50094208437959" y="-83.39280610785255" font-family="sans-serif">LOTBiznes</text></g><g class="relationship" transform="translate(41.64426013725426 125.1667265405681) rotate(521.5986344495404)"><path class="outline" fill="#A5ABB6" stroke="none" d="M 5.987513214418485,-24.277555179777966 L 6.953439040707552,-24.018736134675446 A 92.87871146110909 92.87871146110909 0 0 1 71.1530391546334,-89.28546154269291 L 70.87833308262364,-90.24698979188841 A 93.87871146110909 93.87871146110909 0 0 0 5.987513214418485,-24.277555179777966 Z M 116.21273154045207,-91.80147871205257 L 116.00453368512568,-90.82339198121656 A 92.87871146110909 92.87871146110909 0 0 1 184.52400026813933,-30.10752256099615 L 181.68621493285892,-29.134396469028847 L 187.26759203860976,-23.648211127336452 L 188.3077140485132,-31.40502401695255 L 185.46992871323278,-30.431897924985247 A 93.87871146110909 93.87871146110909 0 0 0 116.21273154045207,-91.80147871205257"/><text text-anchor="middle" pointer-events="none" font-size="8px" fill="#000000" x="93.46736667131914" y="-90.30382095948593" transform="rotate(180 93.46736667131914 -93.30382095948593)" font-family="sans-serif">LOTBiznes</text></g></g><g class="layer nodes"><g class="node" transform="translate(-143.74279587939347,186.84169931267968)"><circle class="outline" cx="0" cy="0" r="25" fill="#F79767" stroke="#f36924" stroke-width="2px"/><text text-anchor="middle" pointer-events="none" font-family="sans-serif" dy="1.5625" font-size="25" fill="#FFFFFF"/><text text-anchor="middle" pointer-events="none" y="5" font-size="10px" fill="#FFFFFF" font-family="sans-serif"> MSN</text></g><g class="node" transform="translate(211.45979638384478,73.22766089674771)"><circle class="outline" cx="0" cy="0" r="25" fill="#F79767" stroke="#f36924" stroke-width="2px"/><text text-anchor="middle" pointer-events="none" font-family="sans-serif" dy="1.5625" font-size="25" fill="#FFFFFF"/><text text-anchor="middle" pointer-events="none" y="5" font-size="10px" fill="#FFFFFF" font-family="sans-serif"> GRR</text></g><g class="node" transform="translate(41.64426013725426,125.1667265405681)"><circle class="outline" cx="0" cy="0" r="25" fill="#F79767" stroke="#f36924" stroke-width="2px"/><text text-anchor="middle" pointer-events="none" font-family="sans-serif" dy="1.5625" font-size="25" fill="#FFFFFF"/><text text-anchor="middle" pointer-events="none" y="5" font-size="10px" fill="#FFFFFF" font-family="sans-serif"> ORD</text></g></g></svg>