<svg xmlns="http://www.w3.org/2000/svg" width="282.94268798828125" height="275.2630615234375" viewBox="-36.24127197265625 -43.15193176269531 282.94268798828125 275.2630615234375"><title>Neo4j Graph Visualization</title><desc>Created using Neo4j (http://www.neo4j.com/)</desc><g class="layer relationships"><g class="relationship" transform="translate(132.30313493245356 203.11114315381732) rotate(257.2592156449107)"><path class="outline" fill="#A5ABB6" stroke="none" d="M 25 0.5 L 35.93555165816946 0.5 L 35.93555165816946 -0.5 L 25 -0.5 Z M 71.70221807052297 0.5 L 82.63776972869243 0.5 L 82.63776972869243 3.5 L 89.63776972869243 0 L 82.63776972869243 -3.5 L 82.63776972869243 -0.5 L 71.70221807052297 -0.5 Z"/><text text-anchor="middle" pointer-events="none" font-size="8px" fill="#000000" x="53.81888486434622" y="3" transform="rotate(180 53.81888486434622 0)" font-family="sans-serif">WROTE</text></g><g class="relationship" transform="translate(217.70142743845412 119.496131278688) rotate(194.29416726208592)"><path class="outline" fill="#A5ABB6" stroke="none" d="M 25 0.5 L 35.72497520472099 0.5 L 35.72497520472099 -0.5 L 25 -0.5 Z M 71.4916416170745 0.5 L 82.2166168217955 0.5 L 82.2166168217955 3.5 L 89.2166168217955 0 L 82.2166168217955 -3.5 L 82.2166168217955 -0.5 L 71.4916416170745 -0.5 Z"/><text text-anchor="middle" pointer-events="none" font-size="8px" fill="#000000" x="53.60830841089775" y="3" transform="rotate(180 53.60830841089775 0)" font-family="sans-serif">WROTE</text></g><g class="relationship" transform="translate(182.51711014132832 4.2230813260787565) rotate(490.926800344233)"><path class="outline" fill="#A5ABB6" stroke="none" d="M 25 0.5 L 31.339098816787136 0.5 L 31.339098816787136 -0.5 L 25 -0.5 Z M 76.90576446620119 0.5 L 83.24486328298833 0.5 L 83.24486328298833 3.5 L 90.24486328298833 0 L 83.24486328298833 -3.5 L 83.24486328298833 -0.5 L 76.90576446620119 -0.5 Z"/><text text-anchor="middle" pointer-events="none" font-size="8px" fill="#000000" x="54.12243164149417" y="3" transform="rotate(180 54.12243164149417 0)" font-family="sans-serif">ACTED_IN</text></g><g class="relationship" transform="translate(63.24189975189403 -14.151930430867903) rotate(427.4531774104186)"><path class="outline" fill="#A5ABB6" stroke="none" d="M 25 0.5 L 30.804022674894107 0.5 L 30.804022674894107 -0.5 L 25 -0.5 Z M 76.37068832430816 0.5 L 82.17471099920228 0.5 L 82.17471099920228 3.5 L 89.17471099920228 0 L 82.17471099920228 -3.5 L 82.17471099920228 -0.5 L 76.37068832430816 -0.5 Z"/><text text-anchor="middle" pointer-events="none" font-size="8px" fill="#000000" x="53.58735549960114" y="3" font-family="sans-serif">ACTED_IN</text></g><g class="relationship" transform="translate(-7.241272923752853 82.61024522647088) rotate(364.3470415730534)"><path class="outline" fill="#A5ABB6" stroke="none" d="M 25 0.5 L 31.01255909839375 0.5 L 31.01255909839375 -0.5 L 25 -0.5 Z M 76.57922474780781 0.5 L 82.59178384620157 0.5 L 82.59178384620157 3.5 L 89.59178384620157 0 L 82.59178384620157 -3.5 L 82.59178384620157 -0.5 L 76.57922474780781 -0.5 Z"/><text text-anchor="middle" pointer-events="none" font-size="8px" fill="#000000" x="53.79589192310078" y="3" font-family="sans-serif">ACTED_IN</text></g><g class="relationship" transform="translate(30.840501862278636 179.5949353033081) rotate(310.7861518328242)"><path class="outline" fill="#A5ABB6" stroke="none" d="M 25 0.5 L 31.359834085510897 0.5 L 31.359834085510897 -0.5 L 25 -0.5 Z M 78.2598356113898 0.5 L 84.6196696969007 0.5 L 84.6196696969007 3.5 L 91.6196696969007 0 L 84.6196696969007 -3.5 L 84.6196696969007 -0.5 L 78.2598356113898 -0.5 Z"/><text text-anchor="middle" pointer-events="none" font-size="8px" fill="#000000" x="54.80983484845035" y="3" font-family="sans-serif">DIRECTED</text></g></g><g class="layer nodes"><g class="node" transform="translate(132.30313493245356,203.11114315381732)"><circle class="outline" cx="0" cy="0" r="25" fill="#F79767" stroke="#f36924" stroke-width="2px"/><text text-anchor="middle" pointer-events="none" font-family="sans-serif" dy="1.5625" font-size="25" fill="#FFFFFF"/><text text-anchor="middle" pointer-events="none" font-family="sans-serif" dy="1.5625" font-size="25" fill="#FFFFFF"/><text text-anchor="middle" pointer-events="none" y="0" font-size="10px" fill="#FFFFFF" font-family="sans-serif"> Stephen</text><text text-anchor="middle" pointer-events="none" y="10" font-size="10px" fill="#FFFFFF" font-family="sans-serif"> McFeely</text></g><g class="node" transform="translate(107.02085759033007,91.29600687627813)"><circle class="outline" cx="0" cy="0" r="25" fill="#57C7E3" stroke="#23b3d7" stroke-width="2px"/><text text-anchor="middle" pointer-events="none" font-family="sans-serif" dy="1.5625" font-size="25" fill="#FFFFFF"/><text text-anchor="middle" pointer-events="none" font-family="sans-serif" dy="1.5625" font-size="25" fill="#FFFFFF"/><text text-anchor="middle" pointer-events="none" font-family="sans-serif" dy="1.5625" font-size="25" fill="#FFFFFF"/><text text-anchor="middle" pointer-events="none" y="-5" font-size="10px" fill="#FFFFFF" font-family="sans-serif"> Captain</text><text text-anchor="middle" pointer-events="none" y="5" font-size="10px" fill="#FFFFFF" font-family="sans-serif"> America:</text><text text-anchor="middle" pointer-events="none" y="15" font-size="10px" fill="#FFFFFF" font-family="sans-serif"> The Fi…</text></g><g class="node" transform="translate(217.70142743845412,119.496131278688)"><circle class="outline" cx="0" cy="0" r="25" fill="#F79767" stroke="#f36924" stroke-width="2px"/><text text-anchor="middle" pointer-events="none" font-family="sans-serif" dy="1.5625" font-size="25" fill="#FFFFFF"/><text text-anchor="middle" pointer-events="none" y="5" font-size="10px" fill="#FFFFFF" font-family="sans-serif"> Christop…</text></g><g class="node" transform="translate(182.51711014132832,4.2230813260787565)"><circle class="outline" cx="0" cy="0" r="25" fill="#F79767" stroke="#f36924" stroke-width="2px"/><text text-anchor="middle" pointer-events="none" font-family="sans-serif" dy="1.5625" font-size="25" fill="#FFFFFF"/><text text-anchor="middle" pointer-events="none" font-family="sans-serif" dy="1.5625" font-size="25" fill="#FFFFFF"/><text text-anchor="middle" pointer-events="none" font-family="sans-serif" dy="1.5625" font-size="25" fill="#FFFFFF"/><text text-anchor="middle" pointer-events="none" y="-5" font-size="10px" fill="#FFFFFF" font-family="sans-serif"> Samuel</text><text text-anchor="middle" pointer-events="none" y="5" font-size="10px" fill="#FFFFFF" font-family="sans-serif"> L.</text><text text-anchor="middle" pointer-events="none" y="15" font-size="10px" fill="#FFFFFF" font-family="sans-serif"> Jackson</text></g><g class="node" transform="translate(63.24189975189403,-14.151930430867903)"><circle class="outline" cx="0" cy="0" r="25" fill="#F79767" stroke="#f36924" stroke-width="2px"/><text text-anchor="middle" pointer-events="none" font-family="sans-serif" dy="1.5625" font-size="25" fill="#FFFFFF"/><text text-anchor="middle" pointer-events="none" font-family="sans-serif" dy="1.5625" font-size="25" fill="#FFFFFF"/><text text-anchor="middle" pointer-events="none" y="0" font-size="10px" fill="#FFFFFF" font-family="sans-serif"> Hugo</text><text text-anchor="middle" pointer-events="none" y="10" font-size="10px" fill="#FFFFFF" font-family="sans-serif"> Weaving</text></g><g class="node" transform="translate(-7.241272923752853,82.61024522647088)"><circle class="outline" cx="0" cy="0" r="25" fill="#F79767" stroke="#f36924" stroke-width="2px"/><text text-anchor="middle" pointer-events="none" font-family="sans-serif" dy="1.5625" font-size="25" fill="#FFFFFF"/><text text-anchor="middle" pointer-events="none" font-family="sans-serif" dy="1.5625" font-size="25" fill="#FFFFFF"/><text text-anchor="middle" pointer-events="none" y="0" font-size="10px" fill="#FFFFFF" font-family="sans-serif"> Chris</text><text text-anchor="middle" pointer-events="none" y="10" font-size="10px" fill="#FFFFFF" font-family="sans-serif"> Evans</text></g><g class="node" transform="translate(30.840501862278636,179.5949353033081)"><circle class="outline" cx="0" cy="0" r="25" fill="#F79767" stroke="#f36924" stroke-width="2px"/><text text-anchor="middle" pointer-events="none" font-family="sans-serif" dy="1.5625" font-size="25" fill="#FFFFFF"/><text text-anchor="middle" pointer-events="none" font-family="sans-serif" dy="1.5625" font-size="25" fill="#FFFFFF"/><text text-anchor="middle" pointer-events="none" y="0" font-size="10px" fill="#FFFFFF" font-family="sans-serif"> Joe</text><text text-anchor="middle" pointer-events="none" y="10" font-size="10px" fill="#FFFFFF" font-family="sans-serif"> Johnston</text></g></g></svg>